<?xml version="1.0" encoding="us-ascii" standalone="no"?><svg xmlns="http://www.w3.org/2000/svg" xmlns:xlink="http://www.w3.org/1999/xlink" contentStyleType="text/css" height="301px" preserveAspectRatio="none" style="width:528px;height:301px;background:#FFFFFF;" version="1.1" viewBox="0 0 528 301" width="528px" zoomAndPan="magnify"><defs/><g><!--class CircleBlock--><g id="elem_CircleBlock"><rect codeLine="2" fill="#F1F1F1" height="66.751" id="CircleBlock" rx="2.5" ry="2.5" style="stroke:#181818;stroke-width:0.5;" width="116" x="149" y="35"/><ellipse cx="169.85" cy="51" fill="#B4A7E5" rx="11" ry="11" style="stroke:#181818;stroke-width:1.0;"/><path d="M170.35,57.5 L168.475,57.5 L168.475,44.75 L170.35,44.75 L170.35,57.5 Z " fill="#000000"/><text fill="#000000" font-family="sans-serif" font-size="14" font-style="italic" lengthAdjust="spacing" textLength="71" x="185.15" y="56.8618">CircleBlock</text><line style="stroke:#181818;stroke-width:0.5;" x1="150" x2="264" y1="67" y2="67"/><line style="stroke:#181818;stroke-width:0.5;" x1="150" x2="264" y1="75" y2="75"/><ellipse cx="160" cy="89.8755" fill="#84BE84" rx="3" ry="3" style="stroke:#038048;stroke-width:1.0;"/><text fill="#000000" font-family="sans-serif" font-size="14" lengthAdjust="spacing" textLength="90" x="169" y="94.2373">area(): double</text></g><!--class Toy--><g id="elem_Toy"><rect codeLine="6" fill="#F1F1F1" height="104.2529" id="Toy" rx="2.5" ry="2.5" style="stroke:#181818;stroke-width:0.5;" width="304" x="7" y="190"/><ellipse cx="142.75" cy="206" fill="#ADD1B2" rx="11" ry="11" style="stroke:#181818;stroke-width:1.0;"/><path d="M146.1719,211.625 Q144.625,212.4531 142.5469,212.4531 Q139.8594,212.4531 138.2031,210.6875 Q136.5625,208.9063 136.5625,206.1094 Q136.5625,203.1563 138.375,201.2344 Q140.1875,199.2969 143.0313,199.2969 Q144.8281,199.2969 146.1719,199.9063 L146.1719,201.9688 Q144.5469,201.0625 143.0156,201.0625 Q140.9531,201.0625 139.7188,202.4531 Q138.5,203.8281 138.5,206.0313 Q138.5,208.125 139.6563,209.4219 Q140.8125,210.7031 142.7188,210.7031 Q144.4844,210.7031 146.1719,209.6875 L146.1719,211.625 Z " fill="#000000"/><text fill="#000000" font-family="sans-serif" font-size="14" lengthAdjust="spacing" textLength="24" x="163.25" y="211.8618">Toy</text><line style="stroke:#181818;stroke-width:0.5;" x1="8" x2="310" y1="222" y2="222"/><rect fill="none" height="6" style="stroke:#C82930;stroke-width:1.0;" width="6" x="15" y="233.8755"/><text fill="#000000" font-family="sans-serif" font-size="14" lengthAdjust="spacing" textLength="145" x="27" y="241.2373">circleBlock: CircleBlock</text><line style="stroke:#181818;stroke-width:0.5;" x1="8" x2="310" y1="248.751" y2="248.751"/><ellipse cx="18" cy="263.6265" fill="#84BE84" rx="3" ry="3" style="stroke:#038048;stroke-width:1.0;"/><text fill="#000000" font-family="sans-serif" font-size="14" lengthAdjust="spacing" textLength="278" x="27" y="267.9883">setCircleBlock(circleBlock: CircleBlock): void</text><ellipse cx="18" cy="282.3774" fill="#84BE84" rx="3" ry="3" style="stroke:#038048;stroke-width:1.0;"/><text fill="#000000" font-family="sans-serif" font-size="14" lengthAdjust="spacing" textLength="70" x="27" y="286.7393">play(): void</text></g><!--class SquareBlock--><g id="elem_SquareBlock"><rect codeLine="13" fill="#F1F1F1" height="123.0039" id="SquareBlock" rx="2.5" ry="2.5" style="stroke:#181818;stroke-width:0.5;" width="171" x="348.5" y="7"/><ellipse cx="390.05" cy="23" fill="#ADD1B2" rx="11" ry="11" style="stroke:#181818;stroke-width:1.0;"/><path d="M393.4719,28.625 Q391.925,29.4531 389.8469,29.4531 Q387.1594,29.4531 385.5031,27.6875 Q383.8625,25.9063 383.8625,23.1094 Q383.8625,20.1563 385.675,18.2344 Q387.4875,16.2969 390.3313,16.2969 Q392.1281,16.2969 393.4719,16.9063 L393.4719,18.9688 Q391.8469,18.0625 390.3156,18.0625 Q388.2531,18.0625 387.0188,19.4531 Q385.8,20.8281 385.8,23.0313 Q385.8,25.125 386.9563,26.4219 Q388.1125,27.7031 390.0188,27.7031 Q391.7844,27.7031 393.4719,26.6875 L393.4719,28.625 Z " fill="#000000"/><text fill="#000000" font-family="sans-serif" font-size="14" lengthAdjust="spacing" textLength="80" x="409.95" y="28.8618">SquareBlock</text><line style="stroke:#181818;stroke-width:0.5;" x1="349.5" x2="518.5" y1="39" y2="39"/><rect fill="none" height="6" style="stroke:#C82930;stroke-width:1.0;" width="6" x="356.5" y="50.8755"/><text fill="#000000" font-family="sans-serif" font-size="14" lengthAdjust="spacing" textLength="55" x="368.5" y="58.2373">width: int</text><line style="stroke:#181818;stroke-width:0.5;" x1="349.5" x2="518.5" y1="65.751" y2="65.751"/><ellipse cx="359.5" cy="80.6265" fill="#84BE84" rx="3" ry="3" style="stroke:#038048;stroke-width:1.0;"/><text fill="#000000" font-family="sans-serif" font-size="14" lengthAdjust="spacing" textLength="145" x="368.5" y="84.9883">SquareBlock(int: width)</text><ellipse cx="359.5" cy="99.3774" fill="#84BE84" rx="3" ry="3" style="stroke:#038048;stroke-width:1.0;"/><text fill="#000000" font-family="sans-serif" font-size="14" lengthAdjust="spacing" textLength="89" x="368.5" y="103.7393">getWidth(): int</text><ellipse cx="359.5" cy="118.1284" fill="#84BE84" rx="3" ry="3" style="stroke:#038048;stroke-width:1.0;"/><text fill="#000000" font-family="sans-serif" font-size="14" lengthAdjust="spacing" textLength="83" x="368.5" y="122.4902">getArea(): int</text></g><!--class BlockAdapter--><g id="elem_BlockAdapter"><rect codeLine="21" fill="#F1F1F1" height="85.502" id="BlockAdapter" rx="2.5" ry="2.5" style="stroke:#181818;stroke-width:0.5;" width="175" x="346.5" y="199"/><ellipse cx="388.05" cy="215" fill="#ADD1B2" rx="11" ry="11" style="stroke:#181818;stroke-width:1.0;"/><path d="M391.4719,220.625 Q389.925,221.4531 387.8469,221.4531 Q385.1594,221.4531 383.5031,219.6875 Q381.8625,217.9063 381.8625,215.1094 Q381.8625,212.1563 383.675,210.2344 Q385.4875,208.2969 388.3313,208.2969 Q390.1281,208.2969 391.4719,208.9063 L391.4719,210.9688 Q389.8469,210.0625 388.3156,210.0625 Q386.2531,210.0625 385.0188,211.4531 Q383.8,212.8281 383.8,215.0313 Q383.8,217.125 384.9563,218.4219 Q386.1125,219.7031 388.0188,219.7031 Q389.7844,219.7031 391.4719,218.6875 L391.4719,220.625 Z " fill="#000000"/><text fill="#000000" font-family="sans-serif" font-size="14" lengthAdjust="spacing" textLength="84" x="407.95" y="220.8618">BlockAdapter</text><line style="stroke:#181818;stroke-width:0.5;" x1="347.5" x2="520.5" y1="231" y2="231"/><line style="stroke:#181818;stroke-width:0.5;" x1="347.5" x2="520.5" y1="239" y2="239"/><ellipse cx="357.5" cy="253.8755" fill="#84BE84" rx="3" ry="3" style="stroke:#038048;stroke-width:1.0;"/><text fill="#000000" font-family="sans-serif" font-size="14" lengthAdjust="spacing" textLength="149" x="366.5" y="258.2373">BlockAdapter(int: width)</text><ellipse cx="357.5" cy="272.6265" fill="#84BE84" rx="3" ry="3" style="stroke:#038048;stroke-width:1.0;"/><text fill="#000000" font-family="sans-serif" font-size="14" lengthAdjust="spacing" textLength="90" x="366.5" y="276.9883">area(): double</text></g><!--reverse link CircleBlock to Toy--><g id="link_CircleBlock_Toy"><path codeLine="26" d="M196.44,107.22 C189.65,131.5 180.73,163.37 173.3,189.91 " fill="none" id="CircleBlock-backto-Toy" style="stroke:#181818;stroke-width:1.0;"/><polygon fill="#181818" points="197.86,102.16,191.5681,109.7371,196.5034,106.9724,199.268,111.9077,197.86,102.16" style="stroke:#181818;stroke-width:1.0;"/></g><!--reverse link CircleBlock to BlockAdapter--><g id="link_CircleBlock_BlockAdapter"><path codeLine="27" d="M266.39,114.37 C300.9,140.44 344.12,173.09 378.03,198.71 " fill="none" id="CircleBlock-backto-BlockAdapter" style="stroke:#181818;stroke-width:1.0;stroke-dasharray:7.0,7.0;"/><polygon fill="none" points="261.97,119.8,250.23,102.16,270.41,108.63,261.97,119.8" style="stroke:#181818;stroke-width:1.0;"/></g><!--reverse link SquareBlock to BlockAdapter--><g id="link_SquareBlock_BlockAdapter"><path codeLine="28" d="M434,150.53 C434,167.23 434,184.17 434,198.8 " fill="none" id="SquareBlock-backto-BlockAdapter" style="stroke:#181818;stroke-width:1.0;"/><polygon fill="none" points="427,150.45,434,130.45,441,150.45,427,150.45" style="stroke:#181818;stroke-width:1.0;"/></g><!--SRC=[TL1B3i8W4DrpYbdI63m0wQPw14rS8unA9AMsLDDOxoueHHgL7M_UP-Rfsc5x419XhLjfS6MiFCETW7yB42qAMd1GjjyR90z2f15T1rixH0u3-T7nt8H4ZmvTXj9_T9zojLf5KMF4G2SenMuklTyeNv71JIjtug1hDmLcBEfX_gOKSNf4jml_u1v42QtYhG5CYI-NIed6jvHQoS4V2T-bvTMMZ8NwvjYuNCvSINvfENh9RFe4]--></g></svg>