<?xml version="1.0" encoding="us-ascii" standalone="no"?><svg xmlns="http://www.w3.org/2000/svg" xmlns:xlink="http://www.w3.org/1999/xlink" contentStyleType="text/css" height="301px" preserveAspectRatio="none" style="width:453px;height:301px;background:#FFFFFF;" version="1.1" viewBox="0 0 453 301" width="453px" zoomAndPan="magnify"><defs/><g><!--class CircleBlock--><g id="elem_CircleBlock"><rect codeLine="2" fill="#F1F1F1" height="66.751" id="CircleBlock" rx="2.5" ry="2.5" style="stroke:#181818;stroke-width:0.5;" width="116" x="92.5" y="35"/><ellipse cx="113.35" cy="51" fill="#B4A7E5" rx="11" ry="11" style="stroke:#181818;stroke-width:1.0;"/><path d="M113.85,57.5 L111.975,57.5 L111.975,44.75 L113.85,44.75 L113.85,57.5 Z " fill="#000000"/><text fill="#000000" font-family="sans-serif" font-size="14" font-style="italic" lengthAdjust="spacing" textLength="71" x="128.65" y="56.8618">CircleBlock</text><line style="stroke:#181818;stroke-width:0.5;" x1="93.5" x2="207.5" y1="67" y2="67"/><line style="stroke:#181818;stroke-width:0.5;" x1="93.5" x2="207.5" y1="75" y2="75"/><ellipse cx="103.5" cy="89.8755" fill="#84BE84" rx="3" ry="3" style="stroke:#038048;stroke-width:1.0;"/><text fill="#000000" font-family="sans-serif" font-size="14" lengthAdjust="spacing" textLength="90" x="112.5" y="94.2373">area(): double</text></g><!--class Toy--><g id="elem_Toy"><rect codeLine="6" fill="#F1F1F1" height="104.2529" id="Toy" rx="2.5" ry="2.5" style="stroke:#181818;stroke-width:0.5;" width="229" x="7" y="190"/><ellipse cx="105.25" cy="206" fill="#ADD1B2" rx="11" ry="11" style="stroke:#181818;stroke-width:1.0;"/><path d="M108.6719,211.625 Q107.125,212.4531 105.0469,212.4531 Q102.3594,212.4531 100.7031,210.6875 Q99.0625,208.9063 99.0625,206.1094 Q99.0625,203.1563 100.875,201.2344 Q102.6875,199.2969 105.5313,199.2969 Q107.3281,199.2969 108.6719,199.9063 L108.6719,201.9688 Q107.0469,201.0625 105.5156,201.0625 Q103.4531,201.0625 102.2188,202.4531 Q101,203.8281 101,206.0313 Q101,208.125 102.1563,209.4219 Q103.3125,210.7031 105.2188,210.7031 Q106.9844,210.7031 108.6719,209.6875 L108.6719,211.625 Z " fill="#000000"/><text fill="#000000" font-family="sans-serif" font-size="14" lengthAdjust="spacing" textLength="24" x="125.75" y="211.8618">Toy</text><line style="stroke:#181818;stroke-width:0.5;" x1="8" x2="235" y1="222" y2="222"/><rect fill="none" height="6" style="stroke:#C82930;stroke-width:1.0;" width="6" x="15" y="233.8755"/><text fill="#000000" font-family="sans-serif" font-size="14" lengthAdjust="spacing" textLength="145" x="27" y="241.2373">circleBlock: CircleBlock</text><line style="stroke:#181818;stroke-width:0.5;" x1="8" x2="235" y1="248.751" y2="248.751"/><ellipse cx="18" cy="263.6265" fill="#84BE84" rx="3" ry="3" style="stroke:#038048;stroke-width:1.0;"/><text fill="#000000" font-family="sans-serif" font-size="14" lengthAdjust="spacing" textLength="203" x="27" y="267.9883">setCircleBlock(CircleBlock): void</text><ellipse cx="18" cy="282.3774" fill="#84BE84" rx="3" ry="3" style="stroke:#038048;stroke-width:1.0;"/><text fill="#000000" font-family="sans-serif" font-size="14" lengthAdjust="spacing" textLength="70" x="27" y="286.7393">play(): void</text></g><!--class SquareBlock--><g id="elem_SquareBlock"><rect codeLine="13" fill="#F1F1F1" height="123.0039" id="SquareBlock" rx="2.5" ry="2.5" style="stroke:#181818;stroke-width:0.5;" width="171" x="273" y="7"/><ellipse cx="314.55" cy="23" fill="#ADD1B2" rx="11" ry="11" style="stroke:#181818;stroke-width:1.0;"/><path d="M317.9719,28.625 Q316.425,29.4531 314.3469,29.4531 Q311.6594,29.4531 310.0031,27.6875 Q308.3625,25.9063 308.3625,23.1094 Q308.3625,20.1563 310.175,18.2344 Q311.9875,16.2969 314.8313,16.2969 Q316.6281,16.2969 317.9719,16.9063 L317.9719,18.9688 Q316.3469,18.0625 314.8156,18.0625 Q312.7531,18.0625 311.5188,19.4531 Q310.3,20.8281 310.3,23.0313 Q310.3,25.125 311.4563,26.4219 Q312.6125,27.7031 314.5188,27.7031 Q316.2844,27.7031 317.9719,26.6875 L317.9719,28.625 Z " fill="#000000"/><text fill="#000000" font-family="sans-serif" font-size="14" lengthAdjust="spacing" textLength="80" x="334.45" y="28.8618">SquareBlock</text><line style="stroke:#181818;stroke-width:0.5;" x1="274" x2="443" y1="39" y2="39"/><rect fill="none" height="6" style="stroke:#C82930;stroke-width:1.0;" width="6" x="281" y="50.8755"/><text fill="#000000" font-family="sans-serif" font-size="14" lengthAdjust="spacing" textLength="55" x="293" y="58.2373">width: int</text><line style="stroke:#181818;stroke-width:0.5;" x1="274" x2="443" y1="65.751" y2="65.751"/><ellipse cx="284" cy="80.6265" fill="#84BE84" rx="3" ry="3" style="stroke:#038048;stroke-width:1.0;"/><text fill="#000000" font-family="sans-serif" font-size="14" lengthAdjust="spacing" textLength="145" x="293" y="84.9883">SquareBlock(int: width)</text><ellipse cx="284" cy="99.3774" fill="#84BE84" rx="3" ry="3" style="stroke:#038048;stroke-width:1.0;"/><text fill="#000000" font-family="sans-serif" font-size="14" lengthAdjust="spacing" textLength="89" x="293" y="103.7393">getWidth(): int</text><ellipse cx="284" cy="118.1284" fill="#84BE84" rx="3" ry="3" style="stroke:#038048;stroke-width:1.0;"/><text fill="#000000" font-family="sans-serif" font-size="14" lengthAdjust="spacing" textLength="83" x="293" y="122.4902">getArea(): int</text></g><!--class BlockAdapter--><g id="elem_BlockAdapter"><rect codeLine="21" fill="#F1F1F1" height="85.502" id="BlockAdapter" rx="2.5" ry="2.5" style="stroke:#181818;stroke-width:0.5;" width="175" x="271" y="199"/><ellipse cx="312.55" cy="215" fill="#ADD1B2" rx="11" ry="11" style="stroke:#181818;stroke-width:1.0;"/><path d="M315.9719,220.625 Q314.425,221.4531 312.3469,221.4531 Q309.6594,221.4531 308.0031,219.6875 Q306.3625,217.9063 306.3625,215.1094 Q306.3625,212.1563 308.175,210.2344 Q309.9875,208.2969 312.8313,208.2969 Q314.6281,208.2969 315.9719,208.9063 L315.9719,210.9688 Q314.3469,210.0625 312.8156,210.0625 Q310.7531,210.0625 309.5188,211.4531 Q308.3,212.8281 308.3,215.0313 Q308.3,217.125 309.4563,218.4219 Q310.6125,219.7031 312.5188,219.7031 Q314.2844,219.7031 315.9719,218.6875 L315.9719,220.625 Z " fill="#000000"/><text fill="#000000" font-family="sans-serif" font-size="14" lengthAdjust="spacing" textLength="84" x="332.45" y="220.8618">BlockAdapter</text><line style="stroke:#181818;stroke-width:0.5;" x1="272" x2="445" y1="231" y2="231"/><line style="stroke:#181818;stroke-width:0.5;" x1="272" x2="445" y1="239" y2="239"/><ellipse cx="282" cy="253.8755" fill="#84BE84" rx="3" ry="3" style="stroke:#038048;stroke-width:1.0;"/><text fill="#000000" font-family="sans-serif" font-size="14" lengthAdjust="spacing" textLength="149" x="291" y="258.2373">BlockAdapter(int: width)</text><ellipse cx="282" cy="272.6265" fill="#84BE84" rx="3" ry="3" style="stroke:#038048;stroke-width:1.0;"/><text fill="#000000" font-family="sans-serif" font-size="14" lengthAdjust="spacing" textLength="90" x="291" y="276.9883">area(): double</text></g><!--reverse link CircleBlock to Toy--><g id="link_CircleBlock_Toy"><path codeLine="26" d="M144.12,107.22 C140.02,131.5 134.63,163.37 130.14,189.91 " fill="none" id="CircleBlock-backto-Toy" style="stroke:#181818;stroke-width:1.0;"/><polygon fill="#181818" points="144.98,102.16,139.5433,110.3723,144.1511,107.0908,147.4325,111.6986,144.98,102.16" style="stroke:#181818;stroke-width:1.0;"/></g><!--reverse link CircleBlock to BlockAdapter--><g id="link_CircleBlock_BlockAdapter"><path codeLine="27" d="M205.79,115.08 C237.26,141.04 276.42,173.33 307.21,198.71 " fill="none" id="CircleBlock-backto-BlockAdapter" style="stroke:#181818;stroke-width:1.0;stroke-dasharray:7.0,7.0;"/><polygon fill="none" points="201.09,120.29,190.11,102.16,210,109.48,201.09,120.29" style="stroke:#181818;stroke-width:1.0;"/></g><!--reverse link SquareBlock to BlockAdapter--><g id="link_SquareBlock_BlockAdapter"><path codeLine="28" d="M358.5,150.53 C358.5,167.23 358.5,184.17 358.5,198.8 " fill="none" id="SquareBlock-backto-BlockAdapter" style="stroke:#181818;stroke-width:1.0;"/><polygon fill="none" points="351.5,150.45,358.5,130.45,365.5,150.45,351.5,150.45" style="stroke:#181818;stroke-width:1.0;"/></g><!--SRC=[RL113i8W4BppYZtI6Fe0qalr2PfuHa0bab9RMjDO_ovKMhTHJZ0pExECgRnkpa9gs9b6MhsrJjxWII2S3OX62vfnKAuxMKrUX4WhsXOERaWQ1l8xnx79H2UVLdl4K7GFvhqpAkbgAmOwGqlQ_jw5HV1c31v6-Ii7KtcSWvGqKFmZon9xqVuOtp5X7fpGCdqpWalgv58gKOU2ba8m-2VXjo_SQi5OR6wDZNc-SYNujyKOHbRi6m00]--></g></svg>