<?xml version="1.0" encoding="us-ascii" standalone="no"?><svg xmlns="http://www.w3.org/2000/svg" xmlns:xlink="http://www.w3.org/1999/xlink" contentStyleType="text/css" height="301px" preserveAspectRatio="none" style="width:688px;height:301px;background:#FFFFFF;" version="1.1" viewBox="0 0 688 301" width="688px" zoomAndPan="magnify"><defs/><g><!--class CircleBlock--><g id="elem_CircleBlock"><rect codeLine="2" fill="#F1F1F1" height="66.751" id="CircleBlock" rx="2.5" ry="2.5" style="stroke:#181818;stroke-width:0.5;" width="116" x="189" y="35"/><ellipse cx="209.85" cy="51" fill="#B4A7E5" rx="11" ry="11" style="stroke:#181818;stroke-width:1.0;"/><path d="M210.35,57.5 L208.475,57.5 L208.475,44.75 L210.35,44.75 L210.35,57.5 Z " fill="#000000"/><text fill="#000000" font-family="sans-serif" font-size="14" font-style="italic" lengthAdjust="spacing" textLength="71" x="225.15" y="56.8618">CircleBlock</text><line style="stroke:#181818;stroke-width:0.5;" x1="190" x2="304" y1="67" y2="67"/><line style="stroke:#181818;stroke-width:0.5;" x1="190" x2="304" y1="75" y2="75"/><ellipse cx="200" cy="89.8755" fill="#84BE84" rx="3" ry="3" style="stroke:#038048;stroke-width:1.0;"/><text fill="#000000" font-family="sans-serif" font-size="14" lengthAdjust="spacing" textLength="90" x="209" y="94.2373">area(): double</text></g><!--class Toy--><g id="elem_Toy"><rect codeLine="6" fill="#F1F1F1" height="104.2529" id="Toy" rx="2.5" ry="2.5" style="stroke:#181818;stroke-width:0.5;" width="304" x="7" y="190"/><ellipse cx="142.75" cy="206" fill="#ADD1B2" rx="11" ry="11" style="stroke:#181818;stroke-width:1.0;"/><path d="M146.1719,211.625 Q144.625,212.4531 142.5469,212.4531 Q139.8594,212.4531 138.2031,210.6875 Q136.5625,208.9063 136.5625,206.1094 Q136.5625,203.1563 138.375,201.2344 Q140.1875,199.2969 143.0313,199.2969 Q144.8281,199.2969 146.1719,199.9063 L146.1719,201.9688 Q144.5469,201.0625 143.0156,201.0625 Q140.9531,201.0625 139.7188,202.4531 Q138.5,203.8281 138.5,206.0313 Q138.5,208.125 139.6563,209.4219 Q140.8125,210.7031 142.7188,210.7031 Q144.4844,210.7031 146.1719,209.6875 L146.1719,211.625 Z " fill="#000000"/><text fill="#000000" font-family="sans-serif" font-size="14" lengthAdjust="spacing" textLength="24" x="163.25" y="211.8618">Toy</text><line style="stroke:#181818;stroke-width:0.5;" x1="8" x2="310" y1="222" y2="222"/><rect fill="none" height="6" style="stroke:#C82930;stroke-width:1.0;" width="6" x="15" y="233.8755"/><text fill="#000000" font-family="sans-serif" font-size="14" lengthAdjust="spacing" textLength="145" x="27" y="241.2373">circleBlock: CircleBlock</text><line style="stroke:#181818;stroke-width:0.5;" x1="8" x2="310" y1="248.751" y2="248.751"/><ellipse cx="18" cy="263.6265" fill="#84BE84" rx="3" ry="3" style="stroke:#038048;stroke-width:1.0;"/><text fill="#000000" font-family="sans-serif" font-size="14" lengthAdjust="spacing" textLength="278" x="27" y="267.9883">setCircleBlock(circleBlock: CircleBlock): void</text><ellipse cx="18" cy="282.3774" fill="#84BE84" rx="3" ry="3" style="stroke:#038048;stroke-width:1.0;"/><text fill="#000000" font-family="sans-serif" font-size="14" lengthAdjust="spacing" textLength="70" x="27" y="286.7393">play(): void</text></g><!--class SquareBlock--><g id="elem_SquareBlock"><rect codeLine="13" fill="#F1F1F1" height="123.0039" id="SquareBlock" rx="2.5" ry="2.5" style="stroke:#181818;stroke-width:0.5;" width="171" x="428.5" y="7"/><ellipse cx="470.05" cy="23" fill="#ADD1B2" rx="11" ry="11" style="stroke:#181818;stroke-width:1.0;"/><path d="M473.4719,28.625 Q471.925,29.4531 469.8469,29.4531 Q467.1594,29.4531 465.5031,27.6875 Q463.8625,25.9063 463.8625,23.1094 Q463.8625,20.1563 465.675,18.2344 Q467.4875,16.2969 470.3313,16.2969 Q472.1281,16.2969 473.4719,16.9063 L473.4719,18.9688 Q471.8469,18.0625 470.3156,18.0625 Q468.2531,18.0625 467.0188,19.4531 Q465.8,20.8281 465.8,23.0313 Q465.8,25.125 466.9563,26.4219 Q468.1125,27.7031 470.0188,27.7031 Q471.7844,27.7031 473.4719,26.6875 L473.4719,28.625 Z " fill="#000000"/><text fill="#000000" font-family="sans-serif" font-size="14" lengthAdjust="spacing" textLength="80" x="489.95" y="28.8618">SquareBlock</text><line style="stroke:#181818;stroke-width:0.5;" x1="429.5" x2="598.5" y1="39" y2="39"/><rect fill="none" height="6" style="stroke:#C82930;stroke-width:1.0;" width="6" x="436.5" y="50.8755"/><text fill="#000000" font-family="sans-serif" font-size="14" lengthAdjust="spacing" textLength="55" x="448.5" y="58.2373">width: int</text><line style="stroke:#181818;stroke-width:0.5;" x1="429.5" x2="598.5" y1="65.751" y2="65.751"/><ellipse cx="439.5" cy="80.6265" fill="#84BE84" rx="3" ry="3" style="stroke:#038048;stroke-width:1.0;"/><text fill="#000000" font-family="sans-serif" font-size="14" lengthAdjust="spacing" textLength="145" x="448.5" y="84.9883">SquareBlock(int: width)</text><ellipse cx="439.5" cy="99.3774" fill="#84BE84" rx="3" ry="3" style="stroke:#038048;stroke-width:1.0;"/><text fill="#000000" font-family="sans-serif" font-size="14" lengthAdjust="spacing" textLength="89" x="448.5" y="103.7393">getWidth(): int</text><ellipse cx="439.5" cy="118.1284" fill="#84BE84" rx="3" ry="3" style="stroke:#038048;stroke-width:1.0;"/><text fill="#000000" font-family="sans-serif" font-size="14" lengthAdjust="spacing" textLength="83" x="448.5" y="122.4902">getArea(): int</text></g><!--class BlockAdapter--><g id="elem_BlockAdapter"><rect codeLine="21" fill="#F1F1F1" height="104.2529" id="BlockAdapter" rx="2.5" ry="2.5" style="stroke:#181818;stroke-width:0.5;" width="335" x="346.5" y="190"/><ellipse cx="467.75" cy="206" fill="#ADD1B2" rx="11" ry="11" style="stroke:#181818;stroke-width:1.0;"/><path d="M471.1719,211.625 Q469.625,212.4531 467.5469,212.4531 Q464.8594,212.4531 463.2031,210.6875 Q461.5625,208.9063 461.5625,206.1094 Q461.5625,203.1563 463.375,201.2344 Q465.1875,199.2969 468.0313,199.2969 Q469.8281,199.2969 471.1719,199.9063 L471.1719,201.9688 Q469.5469,201.0625 468.0156,201.0625 Q465.9531,201.0625 464.7188,202.4531 Q463.5,203.8281 463.5,206.0313 Q463.5,208.125 464.6563,209.4219 Q465.8125,210.7031 467.7188,210.7031 Q469.4844,210.7031 471.1719,209.6875 L471.1719,211.625 Z " fill="#000000"/><text fill="#000000" font-family="sans-serif" font-size="14" lengthAdjust="spacing" textLength="84" x="488.25" y="211.8618">BlockAdapter</text><line style="stroke:#181818;stroke-width:0.5;" x1="347.5" x2="680.5" y1="222" y2="222"/><rect fill="none" height="6" style="stroke:#C82930;stroke-width:1.0;" width="6" x="354.5" y="233.8755"/><text fill="#000000" font-family="sans-serif" font-size="14" lengthAdjust="spacing" textLength="166" x="366.5" y="241.2373">squareBlock: SquareBlock</text><line style="stroke:#181818;stroke-width:0.5;" x1="347.5" x2="680.5" y1="248.751" y2="248.751"/><ellipse cx="357.5" cy="263.6265" fill="#84BE84" rx="3" ry="3" style="stroke:#038048;stroke-width:1.0;"/><text fill="#000000" font-family="sans-serif" font-size="14" lengthAdjust="spacing" textLength="309" x="366.5" y="267.9883">setSquareBlock(squareBlock: SquareBlock): void</text><ellipse cx="357.5" cy="282.3774" fill="#84BE84" rx="3" ry="3" style="stroke:#038048;stroke-width:1.0;"/><text fill="#000000" font-family="sans-serif" font-size="14" lengthAdjust="spacing" textLength="90" x="366.5" y="286.7393">area(): double</text></g><!--reverse link CircleBlock to Toy--><g id="link_CircleBlock_Toy"><path codeLine="28" d="M227.96,106.62 C215.46,130.97 198.95,163.15 185.22,189.91 " fill="none" id="CircleBlock-backto-Toy" style="stroke:#181818;stroke-width:1.0;"/><polygon fill="#181818" points="230.24,102.16,222.5739,108.3431,227.9584,106.6091,229.6924,111.9936,230.24,102.16" style="stroke:#181818;stroke-width:1.0;"/></g><!--reverse link CircleBlock to BlockAdapter--><g id="link_CircleBlock_BlockAdapter"><path codeLine="29" d="M314.96,113.15 C351.37,136.54 396.42,165.48 434.45,189.91 " fill="none" id="CircleBlock-backto-BlockAdapter" style="stroke:#181818;stroke-width:1.0;stroke-dasharray:7.0,7.0;"/><polygon fill="none" points="310.89,118.86,297.85,102.16,318.46,107.08,310.89,118.86" style="stroke:#181818;stroke-width:1.0;"/></g><!--reverse link SquareBlock to BlockAdapter--><g id="link_SquareBlock_BlockAdapter"><path codeLine="30" d="M514,135.5 C514,153.54 514,172.81 514,189.88 " fill="none" id="SquareBlock-backto-BlockAdapter" style="stroke:#181818;stroke-width:1.0;"/><polygon fill="#181818" points="514,130.45,510,139.45,514,135.45,518,139.45,514,130.45" style="stroke:#181818;stroke-width:1.0;"/></g><!--SRC=[TL513i8W4BppYZssCUq3Y9Vg4pJnZ81A9AKMgcdKlmjAwH9JRWmpExE3QftiJunBsAgUQxdHXb_XIS2V5R1UigAa8Cnmr9Ay2U6QMGjxCqPE1NpMKJo4n1bMEeGMItJlSZTAH56dsLXCKBBTtGQV24UiuA64kr1GhPiC4QlmCFrHolXwbkuGxc5w42MqYRi6C3b-fpI2TRwbP6bd0uhTqCOumn8zt_Y_QlmXwweAfUVOgwwpW0Jt4nJPumS0]--></g></svg>