<?xml version="1.0" encoding="us-ascii" standalone="no"?><svg xmlns="http://www.w3.org/2000/svg" xmlns:xlink="http://www.w3.org/1999/xlink" contentStyleType="text/css" height="451px" preserveAspectRatio="none" style="width:1101px;height:451px;background:#FFFFFF;" version="1.1" viewBox="0 0 1101 451" width="1101px" zoomAndPan="magnify"><defs/><g><!--class Invoice--><g id="elem_Invoice"><rect codeLine="2" fill="#F1F1F1" height="216.7588" id="Invoice" rx="2.5" ry="2.5" style="stroke:#181818;stroke-width:0.5;" width="493" x="7" y="7"/><ellipse cx="227.25" cy="23" fill="#ADD1B2" rx="11" ry="11" style="stroke:#181818;stroke-width:1.0;"/><path d="M230.6719,28.625 Q229.125,29.4531 227.0469,29.4531 Q224.3594,29.4531 222.7031,27.6875 Q221.0625,25.9063 221.0625,23.1094 Q221.0625,20.1563 222.875,18.2344 Q224.6875,16.2969 227.5313,16.2969 Q229.3281,16.2969 230.6719,16.9063 L230.6719,18.9688 Q229.0469,18.0625 227.5156,18.0625 Q225.4531,18.0625 224.2188,19.4531 Q223,20.8281 223,23.0313 Q223,25.125 224.1563,26.4219 Q225.3125,27.7031 227.2188,27.7031 Q228.9844,27.7031 230.6719,26.6875 L230.6719,28.625 Z " fill="#000000"/><text fill="#000000" font-family="sans-serif" font-size="14" lengthAdjust="spacing" textLength="44" x="247.75" y="28.8618">Invoice</text><line style="stroke:#181818;stroke-width:0.5;" x1="8" x2="499" y1="39" y2="39"/><rect fill="none" height="6" style="stroke:#C82930;stroke-width:1.0;" width="6" x="15" y="50.8755"/><text fill="#000000" font-family="sans-serif" font-size="14" lengthAdjust="spacing" textLength="73" x="27" y="58.2373">quantity: int</text><rect fill="none" height="6" style="stroke:#C82930;stroke-width:1.0;" width="6" x="15" y="69.6265"/><text fill="#000000" font-family="sans-serif" font-size="14" lengthAdjust="spacing" textLength="63" x="27" y="76.9883">weight: int</text><rect fill="none" height="6" style="stroke:#C82930;stroke-width:1.0;" width="6" x="15" y="88.3774"/><text fill="#000000" font-family="sans-serif" font-size="14" lengthAdjust="spacing" textLength="139" x="27" y="95.7393">departurePoint: String</text><rect fill="none" height="6" style="stroke:#C82930;stroke-width:1.0;" width="6" x="15" y="107.1284"/><text fill="#000000" font-family="sans-serif" font-size="14" lengthAdjust="spacing" textLength="114" x="27" y="114.4902">destination: String</text><line style="stroke:#181818;stroke-width:0.5;" x1="8" x2="499" y1="122.0039" y2="122.0039"/><ellipse cx="18" cy="136.8794" fill="#84BE84" rx="3" ry="3" style="stroke:#038048;stroke-width:1.0;"/><text fill="#000000" font-family="sans-serif" font-size="14" lengthAdjust="spacing" textLength="467" x="27" y="141.2412">Invoice(quantity: int, weight: int, departurePoint: String, destination: String)</text><ellipse cx="18" cy="155.6304" fill="#84BE84" rx="3" ry="3" style="stroke:#038048;stroke-width:1.0;"/><text fill="#000000" font-family="sans-serif" font-size="14" lengthAdjust="spacing" textLength="106" x="27" y="159.9922">getQuantity(): int</text><ellipse cx="18" cy="174.3813" fill="#84BE84" rx="3" ry="3" style="stroke:#038048;stroke-width:1.0;"/><text fill="#000000" font-family="sans-serif" font-size="14" lengthAdjust="spacing" textLength="97" x="27" y="178.7432">getWeight(): int</text><ellipse cx="18" cy="193.1323" fill="#84BE84" rx="3" ry="3" style="stroke:#038048;stroke-width:1.0;"/><text fill="#000000" font-family="sans-serif" font-size="14" lengthAdjust="spacing" textLength="171" x="27" y="197.4941">getDeparturePoint(): String</text><ellipse cx="18" cy="211.8833" fill="#84BE84" rx="3" ry="3" style="stroke:#038048;stroke-width:1.0;"/><text fill="#000000" font-family="sans-serif" font-size="14" lengthAdjust="spacing" textLength="146" x="27" y="216.2451">getDestination(): String</text></g><!--class Package--><g id="elem_Package"><rect codeLine="15" fill="#F1F1F1" height="160.5059" id="Package" rx="2.5" ry="2.5" style="stroke:#181818;stroke-width:0.5;" width="229" x="139" y="284"/><ellipse cx="221.75" cy="300" fill="#ADD1B2" rx="11" ry="11" style="stroke:#181818;stroke-width:1.0;"/><path d="M225.1719,305.625 Q223.625,306.4531 221.5469,306.4531 Q218.8594,306.4531 217.2031,304.6875 Q215.5625,302.9063 215.5625,300.1094 Q215.5625,297.1563 217.375,295.2344 Q219.1875,293.2969 222.0313,293.2969 Q223.8281,293.2969 225.1719,293.9063 L225.1719,295.9688 Q223.5469,295.0625 222.0156,295.0625 Q219.9531,295.0625 218.7188,296.4531 Q217.5,297.8281 217.5,300.0313 Q217.5,302.125 218.6563,303.4219 Q219.8125,304.7031 221.7188,304.7031 Q223.4844,304.7031 225.1719,303.6875 L225.1719,305.625 Z " fill="#000000"/><text fill="#000000" font-family="sans-serif" font-size="14" lengthAdjust="spacing" textLength="55" x="242.25" y="305.8618">Package</text><line style="stroke:#181818;stroke-width:0.5;" x1="140" x2="367" y1="316" y2="316"/><rect fill="none" height="6" style="stroke:#C82930;stroke-width:1.0;" width="6" x="147" y="327.8755"/><text fill="#000000" font-family="sans-serif" font-size="14" lengthAdjust="spacing" textLength="96" x="159" y="335.2373">invoice: Invoice</text><rect fill="none" height="6" style="stroke:#C82930;stroke-width:1.0;" width="6" x="147" y="346.6265"/><text fill="#000000" font-family="sans-serif" font-size="14" lengthAdjust="spacing" textLength="81" x="159" y="353.9883">cargoes: List</text><line style="stroke:#181818;stroke-width:0.5;" x1="140" x2="367" y1="361.502" y2="361.502"/><ellipse cx="150" cy="376.3774" fill="#84BE84" rx="3" ry="3" style="stroke:#038048;stroke-width:1.0;"/><text fill="#000000" font-family="sans-serif" font-size="14" lengthAdjust="spacing" textLength="126" x="159" y="380.7393">getInvoice(): Invoice</text><ellipse cx="150" cy="395.1284" fill="#84BE84" rx="3" ry="3" style="stroke:#038048;stroke-width:1.0;"/><text fill="#000000" font-family="sans-serif" font-size="14" lengthAdjust="spacing" textLength="203" x="159" y="399.4902">setInvoice(invoice: Invoice): void</text><ellipse cx="150" cy="413.8794" fill="#84BE84" rx="3" ry="3" style="stroke:#038048;stroke-width:1.0;"/><text fill="#000000" font-family="sans-serif" font-size="14" lengthAdjust="spacing" textLength="137" x="159" y="418.2412">getCargoes(): Iterator</text><ellipse cx="150" cy="432.6304" fill="#84BE84" rx="3" ry="3" style="stroke:#038048;stroke-width:1.0;"/><text fill="#000000" font-family="sans-serif" font-size="14" lengthAdjust="spacing" textLength="192" x="159" y="436.9922">addCargo(cargo: Object): void</text></g><!--class Transport--><g id="elem_Transport"><rect codeLine="25" fill="#F1F1F1" height="85.502" id="Transport" rx="2.5" ry="2.5" style="stroke:#181818;stroke-width:0.5;" width="207" x="645" y="72.5"/><ellipse cx="713.25" cy="88.5" fill="#B4A7E5" rx="11" ry="11" style="stroke:#181818;stroke-width:1.0;"/><path d="M713.75,95 L711.875,95 L711.875,82.25 L713.75,82.25 L713.75,95 Z " fill="#000000"/><text fill="#000000" font-family="sans-serif" font-size="14" font-style="italic" lengthAdjust="spacing" textLength="62" x="733.75" y="94.3618">Transport</text><line style="stroke:#181818;stroke-width:0.5;" x1="646" x2="851" y1="104.5" y2="104.5"/><line style="stroke:#181818;stroke-width:0.5;" x1="646" x2="851" y1="112.5" y2="112.5"/><ellipse cx="656" cy="127.3755" fill="#84BE84" rx="3" ry="3" style="stroke:#038048;stroke-width:1.0;"/><text fill="#000000" font-family="sans-serif" font-size="14" lengthAdjust="spacing" textLength="181" x="665" y="131.7373">load(cargo: Object): boolean</text><ellipse cx="656" cy="146.1265" fill="#84BE84" rx="3" ry="3" style="stroke:#038048;stroke-width:1.0;"/><text fill="#000000" font-family="sans-serif" font-size="14" lengthAdjust="spacing" textLength="102" x="665" y="150.4883">unload(): Object</text></g><!--class Motorcycle--><g id="elem_Motorcycle"><rect codeLine="30" fill="#F1F1F1" height="104.2529" id="Motorcycle" rx="2.5" ry="2.5" style="stroke:#181818;stroke-width:0.5;" width="207" x="403" y="312.5"/><ellipse cx="468.25" cy="328.5" fill="#ADD1B2" rx="11" ry="11" style="stroke:#181818;stroke-width:1.0;"/><path d="M471.6719,334.125 Q470.125,334.9531 468.0469,334.9531 Q465.3594,334.9531 463.7031,333.1875 Q462.0625,331.4063 462.0625,328.6094 Q462.0625,325.6563 463.875,323.7344 Q465.6875,321.7969 468.5313,321.7969 Q470.3281,321.7969 471.6719,322.4063 L471.6719,324.4688 Q470.0469,323.5625 468.5156,323.5625 Q466.4531,323.5625 465.2188,324.9531 Q464,326.3281 464,328.5313 Q464,330.625 465.1563,331.9219 Q466.3125,333.2031 468.2188,333.2031 Q469.9844,333.2031 471.6719,332.1875 L471.6719,334.125 Z " fill="#000000"/><text fill="#000000" font-family="sans-serif" font-size="14" lengthAdjust="spacing" textLength="68" x="488.75" y="334.3618">Motorcycle</text><line style="stroke:#181818;stroke-width:0.5;" x1="404" x2="609" y1="344.5" y2="344.5"/><rect fill="none" height="6" style="stroke:#C82930;stroke-width:1.0;" width="6" x="411" y="356.3755"/><text fill="#000000" font-family="sans-serif" font-size="14" lengthAdjust="spacing" textLength="85" x="423" y="363.7373">cargo: Object</text><line style="stroke:#181818;stroke-width:0.5;" x1="404" x2="609" y1="371.251" y2="371.251"/><ellipse cx="414" cy="386.1265" fill="#84BE84" rx="3" ry="3" style="stroke:#038048;stroke-width:1.0;"/><text fill="#000000" font-family="sans-serif" font-size="14" lengthAdjust="spacing" textLength="181" x="423" y="390.4883">load(cargo: Object): boolean</text><ellipse cx="414" cy="404.8774" fill="#84BE84" rx="3" ry="3" style="stroke:#038048;stroke-width:1.0;"/><text fill="#000000" font-family="sans-serif" font-size="14" lengthAdjust="spacing" textLength="102" x="423" y="409.2393">unload(): Object</text></g><!--class Truck--><g id="elem_Truck"><rect codeLine="37" fill="#F1F1F1" height="123.0039" id="Truck" rx="2.5" ry="2.5" style="stroke:#181818;stroke-width:0.5;" width="207" x="645" y="303"/><ellipse cx="726.25" cy="319" fill="#ADD1B2" rx="11" ry="11" style="stroke:#181818;stroke-width:1.0;"/><path d="M729.6719,324.625 Q728.125,325.4531 726.0469,325.4531 Q723.3594,325.4531 721.7031,323.6875 Q720.0625,321.9063 720.0625,319.1094 Q720.0625,316.1563 721.875,314.2344 Q723.6875,312.2969 726.5313,312.2969 Q728.3281,312.2969 729.6719,312.9063 L729.6719,314.9688 Q728.0469,314.0625 726.5156,314.0625 Q724.4531,314.0625 723.2188,315.4531 Q722,316.8281 722,319.0313 Q722,321.125 723.1563,322.4219 Q724.3125,323.7031 726.2188,323.7031 Q727.9844,323.7031 729.6719,322.6875 L729.6719,324.625 Z " fill="#000000"/><text fill="#000000" font-family="sans-serif" font-size="14" lengthAdjust="spacing" textLength="36" x="746.75" y="324.8618">Truck</text><line style="stroke:#181818;stroke-width:0.5;" x1="646" x2="851" y1="335" y2="335"/><rect fill="none" height="6" style="stroke:#C82930;stroke-width:1.0;" width="6" x="653" y="346.8755"/><text fill="#000000" font-family="sans-serif" font-size="14" lengthAdjust="spacing" textLength="108" x="665" y="354.2373">cargoes: Object[]</text><rect fill="none" height="6" style="stroke:#C82930;stroke-width:1.0;" width="6" x="653" y="365.6265"/><text fill="#000000" font-family="sans-serif" font-size="14" lengthAdjust="spacing" textLength="63" x="665" y="372.9883">cursor: int</text><line style="stroke:#181818;stroke-width:0.5;" x1="646" x2="851" y1="380.502" y2="380.502"/><ellipse cx="656" cy="395.3774" fill="#84BE84" rx="3" ry="3" style="stroke:#038048;stroke-width:1.0;"/><text fill="#000000" font-family="sans-serif" font-size="14" lengthAdjust="spacing" textLength="181" x="665" y="399.7393">load(cargo: Object): boolean</text><ellipse cx="656" cy="414.1284" fill="#84BE84" rx="3" ry="3" style="stroke:#038048;stroke-width:1.0;"/><text fill="#000000" font-family="sans-serif" font-size="14" lengthAdjust="spacing" textLength="102" x="665" y="418.4902">unload(): Object</text></g><!--class Train--><g id="elem_Train"><rect codeLine="45" fill="#F1F1F1" height="123.0039" id="Train" rx="2.5" ry="2.5" style="stroke:#181818;stroke-width:0.5;" width="207" x="887" y="303"/><ellipse cx="969.75" cy="319" fill="#ADD1B2" rx="11" ry="11" style="stroke:#181818;stroke-width:1.0;"/><path d="M973.1719,324.625 Q971.625,325.4531 969.5469,325.4531 Q966.8594,325.4531 965.2031,323.6875 Q963.5625,321.9063 963.5625,319.1094 Q963.5625,316.1563 965.375,314.2344 Q967.1875,312.2969 970.0313,312.2969 Q971.8281,312.2969 973.1719,312.9063 L973.1719,314.9688 Q971.5469,314.0625 970.0156,314.0625 Q967.9531,314.0625 966.7188,315.4531 Q965.5,316.8281 965.5,319.0313 Q965.5,321.125 966.6563,322.4219 Q967.8125,323.7031 969.7188,323.7031 Q971.4844,323.7031 973.1719,322.6875 L973.1719,324.625 Z " fill="#000000"/><text fill="#000000" font-family="sans-serif" font-size="14" lengthAdjust="spacing" textLength="33" x="990.25" y="324.8618">Train</text><line style="stroke:#181818;stroke-width:0.5;" x1="888" x2="1093" y1="335" y2="335"/><rect fill="none" height="6" style="stroke:#C82930;stroke-width:1.0;" width="6" x="895" y="346.8755"/><text fill="#000000" font-family="sans-serif" font-size="14" lengthAdjust="spacing" textLength="108" x="907" y="354.2373">cargoes: Object[]</text><rect fill="none" height="6" style="stroke:#C82930;stroke-width:1.0;" width="6" x="895" y="365.6265"/><text fill="#000000" font-family="sans-serif" font-size="14" lengthAdjust="spacing" textLength="63" x="907" y="372.9883">cursor: int</text><line style="stroke:#181818;stroke-width:0.5;" x1="888" x2="1093" y1="380.502" y2="380.502"/><ellipse cx="898" cy="395.3774" fill="#84BE84" rx="3" ry="3" style="stroke:#038048;stroke-width:1.0;"/><text fill="#000000" font-family="sans-serif" font-size="14" lengthAdjust="spacing" textLength="181" x="907" y="399.7393">load(cargo: Object): boolean</text><ellipse cx="898" cy="414.1284" fill="#84BE84" rx="3" ry="3" style="stroke:#038048;stroke-width:1.0;"/><text fill="#000000" font-family="sans-serif" font-size="14" lengthAdjust="spacing" textLength="102" x="907" y="418.4902">unload(): Object</text></g><!--reverse link Invoice to Package--><g id="link_Invoice_Package"><path codeLine="53" d="M253.5,229.29 C253.5,247.67 253.5,266.36 253.5,283.73 " fill="none" id="Invoice-backto-Package" style="stroke:#181818;stroke-width:1.0;"/><polygon fill="#181818" points="253.5,224.12,249.5,233.12,253.5,229.12,257.5,233.12,253.5,224.12" style="stroke:#181818;stroke-width:1.0;"/></g><!--reverse link Transport to Motorcycle--><g id="link_Transport_Motorcycle"><path codeLine="54" d="M693.04,173.1 C652.03,214.96 596.64,271.5 556.88,312.08 " fill="none" id="Transport-backto-Motorcycle" style="stroke:#181818;stroke-width:1.0;stroke-dasharray:7.0,7.0;"/><polygon fill="none" points="688.18,168.07,707.17,158.68,698.18,177.87,688.18,168.07" style="stroke:#181818;stroke-width:1.0;"/></g><!--reverse link Transport to Truck--><g id="link_Transport_Truck"><path codeLine="55" d="M748.5,178.89 C748.5,216.92 748.5,265.29 748.5,302.98 " fill="none" id="Transport-backto-Truck" style="stroke:#181818;stroke-width:1.0;stroke-dasharray:7.0,7.0;"/><polygon fill="none" points="741.5,178.68,748.5,158.68,755.5,178.68,741.5,178.68" style="stroke:#181818;stroke-width:1.0;"/></g><!--reverse link Transport to Train--><g id="link_Transport_Train"><path codeLine="56" d="M804,173.15 C842.02,211.95 892.39,263.37 931.2,302.98 " fill="none" id="Transport-backto-Train" style="stroke:#181818;stroke-width:1.0;stroke-dasharray:7.0,7.0;"/><polygon fill="none" points="798.82,177.87,789.83,158.68,808.82,168.07,798.82,177.87" style="stroke:#181818;stroke-width:1.0;"/></g><!--SRC=[lLD1JiCm4Bpx5JucIj87HBt11Gb44PKu80vRnmJJo2xh3QW2_exhs77ImgqYbqWpwndFR28wi9PVwNUZXEIVZBkducyzQ5AqhxdI5B0FgTeNcYADt05IZt9b75ZpUqAbsv6qf3IGCdfaF5L4jspcKauDoZ-qozzayo3RIheBYbcUxkc91wzz0b_EN0xq94EO6Fqcz3TZmXUt0h65DXMdXcXrp1XW0TWQQMj-hIonf1wRoES72cuJTopfPjsxII8NWxWN8Ob01WC9JUF9pFlN_7RpAWL50HV2XPRu36xpQmHjTmOfH2buPw0vERWnffEWmqYl_L0U1r8lDyRTGkn5bwgPIR5pcAon5zkv_g7ZOUpnAU8zMeF3ui_Z2ah_eslyDvTL5JytbhQr_5ei9cqVCxwYKz0bO3y0]--></g></svg>