<?xml version="1.0" encoding="us-ascii" standalone="no"?><svg xmlns="http://www.w3.org/2000/svg" xmlns:xlink="http://www.w3.org/1999/xlink" contentStyleType="text/css" height="283px" preserveAspectRatio="none" style="width:1250px;height:283px;background:#FFFFFF;" version="1.1" viewBox="0 0 1250 283" width="1250px" zoomAndPan="magnify"><defs/><g><!--class Transport--><g id="elem_Transport"><rect codeLine="2" fill="#F1F1F1" height="85.502" id="Transport" rx="2.5" ry="2.5" style="stroke:#181818;stroke-width:0.5;" width="207" x="370" y="7"/><ellipse cx="438.25" cy="23" fill="#B4A7E5" rx="11" ry="11" style="stroke:#181818;stroke-width:1.0;"/><path d="M438.75,29.5 L436.875,29.5 L436.875,16.75 L438.75,16.75 L438.75,29.5 Z " fill="#000000"/><text fill="#000000" font-family="sans-serif" font-size="14" font-style="italic" lengthAdjust="spacing" textLength="62" x="458.75" y="28.8618">Transport</text><line style="stroke:#181818;stroke-width:0.5;" x1="371" x2="576" y1="39" y2="39"/><line style="stroke:#181818;stroke-width:0.5;" x1="371" x2="576" y1="47" y2="47"/><ellipse cx="381" cy="61.8755" fill="#84BE84" rx="3" ry="3" style="stroke:#038048;stroke-width:1.0;"/><text fill="#000000" font-family="sans-serif" font-size="14" lengthAdjust="spacing" textLength="181" x="390" y="66.2373">load(cargo: Object): boolean</text><ellipse cx="381" cy="80.6265" fill="#84BE84" rx="3" ry="3" style="stroke:#038048;stroke-width:1.0;"/><text fill="#000000" font-family="sans-serif" font-size="14" lengthAdjust="spacing" textLength="102" x="390" y="84.9883">unload(): Object</text></g><!--class Motorcycle--><g id="elem_Motorcycle"><rect codeLine="7" fill="#F1F1F1" height="104.2529" id="Motorcycle" rx="2.5" ry="2.5" style="stroke:#181818;stroke-width:0.5;" width="207" x="7" y="162.5"/><ellipse cx="72.25" cy="178.5" fill="#ADD1B2" rx="11" ry="11" style="stroke:#181818;stroke-width:1.0;"/><path d="M75.6719,184.125 Q74.125,184.9531 72.0469,184.9531 Q69.3594,184.9531 67.7031,183.1875 Q66.0625,181.4063 66.0625,178.6094 Q66.0625,175.6563 67.875,173.7344 Q69.6875,171.7969 72.5313,171.7969 Q74.3281,171.7969 75.6719,172.4063 L75.6719,174.4688 Q74.0469,173.5625 72.5156,173.5625 Q70.4531,173.5625 69.2188,174.9531 Q68,176.3281 68,178.5313 Q68,180.625 69.1563,181.9219 Q70.3125,183.2031 72.2188,183.2031 Q73.9844,183.2031 75.6719,182.1875 L75.6719,184.125 Z " fill="#000000"/><text fill="#000000" font-family="sans-serif" font-size="14" lengthAdjust="spacing" textLength="68" x="92.75" y="184.3618">Motorcycle</text><line style="stroke:#181818;stroke-width:0.5;" x1="8" x2="213" y1="194.5" y2="194.5"/><rect fill="none" height="6" style="stroke:#C82930;stroke-width:1.0;" width="6" x="15" y="206.3755"/><text fill="#000000" font-family="sans-serif" font-size="14" lengthAdjust="spacing" textLength="85" x="27" y="213.7373">cargo: Object</text><line style="stroke:#181818;stroke-width:0.5;" x1="8" x2="213" y1="221.251" y2="221.251"/><ellipse cx="18" cy="236.1265" fill="#84BE84" rx="3" ry="3" style="stroke:#038048;stroke-width:1.0;"/><text fill="#000000" font-family="sans-serif" font-size="14" lengthAdjust="spacing" textLength="181" x="27" y="240.4883">load(cargo: Object): boolean</text><ellipse cx="18" cy="254.8774" fill="#84BE84" rx="3" ry="3" style="stroke:#038048;stroke-width:1.0;"/><text fill="#000000" font-family="sans-serif" font-size="14" lengthAdjust="spacing" textLength="102" x="27" y="259.2393">unload(): Object</text></g><!--class Truck--><g id="elem_Truck"><rect codeLine="14" fill="#F1F1F1" height="123.0039" id="Truck" rx="2.5" ry="2.5" style="stroke:#181818;stroke-width:0.5;" width="207" x="249" y="153"/><ellipse cx="330.25" cy="169" fill="#ADD1B2" rx="11" ry="11" style="stroke:#181818;stroke-width:1.0;"/><path d="M333.6719,174.625 Q332.125,175.4531 330.0469,175.4531 Q327.3594,175.4531 325.7031,173.6875 Q324.0625,171.9063 324.0625,169.1094 Q324.0625,166.1563 325.875,164.2344 Q327.6875,162.2969 330.5313,162.2969 Q332.3281,162.2969 333.6719,162.9063 L333.6719,164.9688 Q332.0469,164.0625 330.5156,164.0625 Q328.4531,164.0625 327.2188,165.4531 Q326,166.8281 326,169.0313 Q326,171.125 327.1563,172.4219 Q328.3125,173.7031 330.2188,173.7031 Q331.9844,173.7031 333.6719,172.6875 L333.6719,174.625 Z " fill="#000000"/><text fill="#000000" font-family="sans-serif" font-size="14" lengthAdjust="spacing" textLength="36" x="350.75" y="174.8618">Truck</text><line style="stroke:#181818;stroke-width:0.5;" x1="250" x2="455" y1="185" y2="185"/><rect fill="none" height="6" style="stroke:#C82930;stroke-width:1.0;" width="6" x="257" y="196.8755"/><text fill="#000000" font-family="sans-serif" font-size="14" lengthAdjust="spacing" textLength="108" x="269" y="204.2373">cargoes: Object[]</text><rect fill="none" height="6" style="stroke:#C82930;stroke-width:1.0;" width="6" x="257" y="215.6265"/><text fill="#000000" font-family="sans-serif" font-size="14" lengthAdjust="spacing" textLength="63" x="269" y="222.9883">cursor: int</text><line style="stroke:#181818;stroke-width:0.5;" x1="250" x2="455" y1="230.502" y2="230.502"/><ellipse cx="260" cy="245.3774" fill="#84BE84" rx="3" ry="3" style="stroke:#038048;stroke-width:1.0;"/><text fill="#000000" font-family="sans-serif" font-size="14" lengthAdjust="spacing" textLength="181" x="269" y="249.7393">load(cargo: Object): boolean</text><ellipse cx="260" cy="264.1284" fill="#84BE84" rx="3" ry="3" style="stroke:#038048;stroke-width:1.0;"/><text fill="#000000" font-family="sans-serif" font-size="14" lengthAdjust="spacing" textLength="102" x="269" y="268.4902">unload(): Object</text></g><!--class Train--><g id="elem_Train"><rect codeLine="22" fill="#F1F1F1" height="123.0039" id="Train" rx="2.5" ry="2.5" style="stroke:#181818;stroke-width:0.5;" width="207" x="491" y="153"/><ellipse cx="573.75" cy="169" fill="#ADD1B2" rx="11" ry="11" style="stroke:#181818;stroke-width:1.0;"/><path d="M577.1719,174.625 Q575.625,175.4531 573.5469,175.4531 Q570.8594,175.4531 569.2031,173.6875 Q567.5625,171.9063 567.5625,169.1094 Q567.5625,166.1563 569.375,164.2344 Q571.1875,162.2969 574.0313,162.2969 Q575.8281,162.2969 577.1719,162.9063 L577.1719,164.9688 Q575.5469,164.0625 574.0156,164.0625 Q571.9531,164.0625 570.7188,165.4531 Q569.5,166.8281 569.5,169.0313 Q569.5,171.125 570.6563,172.4219 Q571.8125,173.7031 573.7188,173.7031 Q575.4844,173.7031 577.1719,172.6875 L577.1719,174.625 Z " fill="#000000"/><text fill="#000000" font-family="sans-serif" font-size="14" lengthAdjust="spacing" textLength="33" x="594.25" y="174.8618">Train</text><line style="stroke:#181818;stroke-width:0.5;" x1="492" x2="697" y1="185" y2="185"/><rect fill="none" height="6" style="stroke:#C82930;stroke-width:1.0;" width="6" x="499" y="196.8755"/><text fill="#000000" font-family="sans-serif" font-size="14" lengthAdjust="spacing" textLength="108" x="511" y="204.2373">cargoes: Object[]</text><rect fill="none" height="6" style="stroke:#C82930;stroke-width:1.0;" width="6" x="499" y="215.6265"/><text fill="#000000" font-family="sans-serif" font-size="14" lengthAdjust="spacing" textLength="63" x="511" y="222.9883">cursor: int</text><line style="stroke:#181818;stroke-width:0.5;" x1="492" x2="697" y1="230.502" y2="230.502"/><ellipse cx="502" cy="245.3774" fill="#84BE84" rx="3" ry="3" style="stroke:#038048;stroke-width:1.0;"/><text fill="#000000" font-family="sans-serif" font-size="14" lengthAdjust="spacing" textLength="181" x="511" y="249.7393">load(cargo: Object): boolean</text><ellipse cx="502" cy="264.1284" fill="#84BE84" rx="3" ry="3" style="stroke:#038048;stroke-width:1.0;"/><text fill="#000000" font-family="sans-serif" font-size="14" lengthAdjust="spacing" textLength="102" x="511" y="268.4902">unload(): Object</text></g><!--class TransportFactory--><g id="elem_TransportFactory"><rect codeLine="30" fill="#F1F1F1" height="66.751" id="TransportFactory" rx="2.5" ry="2.5" style="stroke:#181818;stroke-width:0.5;" width="146" x="825.5" y="16.5"/><ellipse cx="842.3" cy="32.5" fill="#B4A7E5" rx="11" ry="11" style="stroke:#181818;stroke-width:1.0;"/><path d="M842.8,39 L840.925,39 L840.925,26.25 L842.8,26.25 L842.8,39 Z " fill="#000000"/><text fill="#000000" font-family="sans-serif" font-size="14" font-style="italic" lengthAdjust="spacing" textLength="110" x="856.7" y="38.3618">TransportFactory</text><line style="stroke:#181818;stroke-width:0.5;" x1="826.5" x2="970.5" y1="48.5" y2="48.5"/><line style="stroke:#181818;stroke-width:0.5;" x1="826.5" x2="970.5" y1="56.5" y2="56.5"/><ellipse cx="836.5" cy="71.3755" fill="#84BE84" rx="3" ry="3" style="stroke:#038048;stroke-width:1.0;"/><text fill="#000000" font-family="sans-serif" font-size="14" lengthAdjust="spacing" textLength="120" x="845.5" y="75.7373">create(): Transport</text></g><!--class MotorcycleFactory--><g id="elem_MotorcycleFactory"><rect codeLine="34" fill="#F1F1F1" height="66.751" id="MotorcycleFactory" rx="2.5" ry="2.5" style="stroke:#181818;stroke-width:0.5;" width="148" x="733.5" y="181"/><ellipse cx="748.5" cy="197" fill="#ADD1B2" rx="11" ry="11" style="stroke:#181818;stroke-width:1.0;"/><path d="M751.9219,202.625 Q750.375,203.4531 748.2969,203.4531 Q745.6094,203.4531 743.9531,201.6875 Q742.3125,199.9063 742.3125,197.1094 Q742.3125,194.1563 744.125,192.2344 Q745.9375,190.2969 748.7813,190.2969 Q750.5781,190.2969 751.9219,190.9063 L751.9219,192.9688 Q750.2969,192.0625 748.7656,192.0625 Q746.7031,192.0625 745.4688,193.4531 Q744.25,194.8281 744.25,197.0313 Q744.25,199.125 745.4063,200.4219 Q746.5625,201.7031 748.4688,201.7031 Q750.2344,201.7031 751.9219,200.6875 L751.9219,202.625 Z " fill="#000000"/><text fill="#000000" font-family="sans-serif" font-size="14" lengthAdjust="spacing" textLength="116" x="762.5" y="202.8618">MotorcycleFactory</text><line style="stroke:#181818;stroke-width:0.5;" x1="734.5" x2="880.5" y1="213" y2="213"/><line style="stroke:#181818;stroke-width:0.5;" x1="734.5" x2="880.5" y1="221" y2="221"/><ellipse cx="744.5" cy="235.8755" fill="#84BE84" rx="3" ry="3" style="stroke:#038048;stroke-width:1.0;"/><text fill="#000000" font-family="sans-serif" font-size="14" lengthAdjust="spacing" textLength="120" x="753.5" y="240.2373">create(): Transport</text></g><!--class TruckFactory--><g id="elem_TruckFactory"><rect codeLine="38" fill="#F1F1F1" height="66.751" id="TruckFactory" rx="2.5" ry="2.5" style="stroke:#181818;stroke-width:0.5;" width="146" x="916.5" y="181"/><ellipse cx="945" cy="197" fill="#ADD1B2" rx="11" ry="11" style="stroke:#181818;stroke-width:1.0;"/><path d="M948.4219,202.625 Q946.875,203.4531 944.7969,203.4531 Q942.1094,203.4531 940.4531,201.6875 Q938.8125,199.9063 938.8125,197.1094 Q938.8125,194.1563 940.625,192.2344 Q942.4375,190.2969 945.2813,190.2969 Q947.0781,190.2969 948.4219,190.9063 L948.4219,192.9688 Q946.7969,192.0625 945.2656,192.0625 Q943.2031,192.0625 941.9688,193.4531 Q940.75,194.8281 940.75,197.0313 Q940.75,199.125 941.9063,200.4219 Q943.0625,201.7031 944.9688,201.7031 Q946.7344,201.7031 948.4219,200.6875 L948.4219,202.625 Z " fill="#000000"/><text fill="#000000" font-family="sans-serif" font-size="14" lengthAdjust="spacing" textLength="84" x="962" y="202.8618">TruckFactory</text><line style="stroke:#181818;stroke-width:0.5;" x1="917.5" x2="1061.5" y1="213" y2="213"/><line style="stroke:#181818;stroke-width:0.5;" x1="917.5" x2="1061.5" y1="221" y2="221"/><ellipse cx="927.5" cy="235.8755" fill="#84BE84" rx="3" ry="3" style="stroke:#038048;stroke-width:1.0;"/><text fill="#000000" font-family="sans-serif" font-size="14" lengthAdjust="spacing" textLength="120" x="936.5" y="240.2373">create(): Transport</text></g><!--class TrainFactory--><g id="elem_TrainFactory"><rect codeLine="42" fill="#F1F1F1" height="66.751" id="TrainFactory" rx="2.5" ry="2.5" style="stroke:#181818;stroke-width:0.5;" width="146" x="1097.5" y="181"/><ellipse cx="1127.35" cy="197" fill="#ADD1B2" rx="11" ry="11" style="stroke:#181818;stroke-width:1.0;"/><path d="M1130.7719,202.625 Q1129.225,203.4531 1127.1469,203.4531 Q1124.4594,203.4531 1122.8031,201.6875 Q1121.1625,199.9063 1121.1625,197.1094 Q1121.1625,194.1563 1122.975,192.2344 Q1124.7875,190.2969 1127.6313,190.2969 Q1129.4281,190.2969 1130.7719,190.9063 L1130.7719,192.9688 Q1129.1469,192.0625 1127.6156,192.0625 Q1125.5531,192.0625 1124.3188,193.4531 Q1123.1,194.8281 1123.1,197.0313 Q1123.1,199.125 1124.2563,200.4219 Q1125.4125,201.7031 1127.3188,201.7031 Q1129.0844,201.7031 1130.7719,200.6875 L1130.7719,202.625 Z " fill="#000000"/><text fill="#000000" font-family="sans-serif" font-size="14" lengthAdjust="spacing" textLength="81" x="1144.65" y="202.8618">TrainFactory</text><line style="stroke:#181818;stroke-width:0.5;" x1="1098.5" x2="1242.5" y1="213" y2="213"/><line style="stroke:#181818;stroke-width:0.5;" x1="1098.5" x2="1242.5" y1="221" y2="221"/><ellipse cx="1108.5" cy="235.8755" fill="#84BE84" rx="3" ry="3" style="stroke:#038048;stroke-width:1.0;"/><text fill="#000000" font-family="sans-serif" font-size="14" lengthAdjust="spacing" textLength="120" x="1117.5" y="240.2373">create(): Transport</text></g><!--reverse link Transport to Motorcycle--><g id="link_Transport_Motorcycle"><path codeLine="46" d="M351.26,100.71 C312.71,116.87 270.12,135.23 231.5,153 C224.89,156.04 218.1,159.24 211.28,162.5 " fill="none" id="Transport-backto-Motorcycle" style="stroke:#181818;stroke-width:1.0;stroke-dasharray:7.0,7.0;"/><polygon fill="none" points="348.67,94.21,369.82,92.97,354.06,107.13,348.67,94.21" style="stroke:#181818;stroke-width:1.0;"/></g><!--reverse link Transport to Truck--><g id="link_Transport_Truck"><path codeLine="47" d="M429.76,109.74 C419.34,123.73 408.2,138.7 397.71,152.78 " fill="none" id="Transport-backto-Truck" style="stroke:#181818;stroke-width:1.0;stroke-dasharray:7.0,7.0;"/><polygon fill="none" points="424.47,105.13,442.02,93.27,435.69,113.49,424.47,105.13" style="stroke:#181818;stroke-width:1.0;"/></g><!--reverse link Transport to Train--><g id="link_Transport_Train"><path codeLine="48" d="M517.24,109.74 C527.66,123.73 538.8,138.7 549.29,152.78 " fill="none" id="Transport-backto-Train" style="stroke:#181818;stroke-width:1.0;stroke-dasharray:7.0,7.0;"/><polygon fill="none" points="511.31,113.49,504.98,93.27,522.53,105.13,511.31,113.49" style="stroke:#181818;stroke-width:1.0;"/></g><!--reverse link TransportFactory to MotorcycleFactory--><g id="link_TransportFactory_MotorcycleFactory"><path codeLine="49" d="M870.12,101.68 C855.63,127.55 838.44,158.26 825.73,180.94 " fill="none" id="TransportFactory-backto-MotorcycleFactory" style="stroke:#181818;stroke-width:1.0;stroke-dasharray:7.0,7.0;"/><polygon fill="none" points="864.21,97.91,880.08,83.88,876.42,104.75,864.21,97.91" style="stroke:#181818;stroke-width:1.0;"/></g><!--reverse link TransportFactory to TruckFactory--><g id="link_TransportFactory_TruckFactory"><path codeLine="50" d="M926.88,101.68 C941.37,127.55 958.56,158.26 971.27,180.94 " fill="none" id="TransportFactory-backto-TruckFactory" style="stroke:#181818;stroke-width:1.0;stroke-dasharray:7.0,7.0;"/><polygon fill="none" points="920.58,104.75,916.92,83.88,932.79,97.91,920.58,104.75" style="stroke:#181818;stroke-width:1.0;"/></g><!--reverse link TransportFactory to TrainFactory--><g id="link_TransportFactory_TrainFactory"><path codeLine="51" d="M977.31,93.35 C1009.63,111.18 1047.2,132.52 1080.5,153 C1094.61,161.68 1109.66,171.54 1123.33,180.74 " fill="none" id="TransportFactory-backto-TrainFactory" style="stroke:#181818;stroke-width:1.0;stroke-dasharray:7.0,7.0;"/><polygon fill="none" points="973.63,99.31,959.46,83.56,980.36,87.04,973.63,99.31" style="stroke:#181818;stroke-width:1.0;"/></g><!--reverse link Transport to TransportFactory--><g id="link_Transport_TransportFactory"><path codeLine="52" d="M582.59,50 C663.53,50 744.47,50 825.41,50 " fill="none" id="Transport-backto-TransportFactory" style="stroke:#181818;stroke-width:1.0;stroke-dasharray:7.0,7.0;"/><polygon fill="#181818" points="577.26,50,586.26,54,582.26,50,586.26,46,577.26,50" style="stroke:#181818;stroke-width:1.0;"/></g><!--SRC=[lLAz2i8m4Dxp53TQn3v0SNOJ5pTnk9vHeYMHIpeKzTsDfV-nOA6OyVBzNBulIZl9PoG9UqPjxuOTF0JuiuJCu6b1o1UJm2wzId9H0gancKHTGN9TWg8Q85v2K8RMmjOumrHG9Ykz5VIan1mcUyxfrjUNjeOTZlKyPsiu0QNdSaMb_-YgmeusI3xUegcAMAAJ7re3-LR595ePxaI63-P7HllTriyuxkmul2dN28VUIGHn3AIgyGYk-xvHIFkWxWfnq8Hu0m00]--></g></svg>