<?xml version="1.0" encoding="us-ascii" standalone="no"?><svg xmlns="http://www.w3.org/2000/svg" xmlns:xlink="http://www.w3.org/1999/xlink" contentStyleType="text/css" height="707px" preserveAspectRatio="none" style="width:846px;height:707px;background:#FFFFFF;" version="1.1" viewBox="0 0 846 707" width="846px" zoomAndPan="magnify"><defs/><g><!--class CreatureOrganFactory--><g id="elem_CreatureOrganFactory"><rect codeLine="2" fill="#F1F1F1" height="103.8633" id="CreatureOrganFactory" rx="2.5" ry="2.5" style="stroke:#181818;stroke-width:0.5;" width="176" x="314.5" y="245"/><ellipse cx="329.5" cy="261" fill="#B4A7E5" rx="11" ry="11" style="stroke:#181818;stroke-width:1.0;"/><path d="M330.4531,257.6406 L330.4531,264.2969 L332.1719,264.2969 Q332.7813,264.2969 333.0469,264.5313 Q333.3125,264.7656 333.3125,265.1563 Q333.3125,265.5313 333.0469,265.7656 Q332.7813,266 332.1719,266 L327.0313,266 Q326.4219,266 326.1563,265.7656 Q325.8906,265.5313 325.8906,265.1406 Q325.8906,264.7656 326.1563,264.5313 Q326.4219,264.2969 327.0313,264.2969 L328.75,264.2969 L328.75,257.6406 L327.0313,257.6406 Q326.4219,257.6406 326.1563,257.4063 Q325.8906,257.1719 325.8906,256.7813 Q325.8906,256.4063 326.1563,256.1719 Q326.4219,255.9375 327.0313,255.9375 L332.1719,255.9375 Q332.7813,255.9375 333.0469,256.1719 Q333.3125,256.4063 333.3125,256.7813 Q333.3125,257.1719 333.0469,257.4063 Q332.7813,257.6406 332.1719,257.6406 L330.4531,257.6406 Z " fill="#000000"/><text fill="#000000" font-family="sans-serif" font-size="14" font-style="italic" lengthAdjust="spacing" textLength="144" x="343.5" y="266.7969">CreatureOrganFactory</text><line style="stroke:#181818;stroke-width:0.5;" x1="315.5" x2="489.5" y1="277" y2="277"/><line style="stroke:#181818;stroke-width:0.5;" x1="315.5" x2="489.5" y1="285" y2="285"/><ellipse cx="325.5" cy="299.8105" fill="#84BE84" rx="3" ry="3" style="stroke:#038048;stroke-width:1.0;"/><text fill="#000000" font-family="sans-serif" font-size="14" lengthAdjust="spacing" textLength="124" x="334.5" y="304.1074">createBrain(): Brain</text><ellipse cx="325.5" cy="318.4316" fill="#84BE84" rx="3" ry="3" style="stroke:#038048;stroke-width:1.0;"/><text fill="#000000" font-family="sans-serif" font-size="14" lengthAdjust="spacing" textLength="126" x="334.5" y="322.7285">createHeart(): Heart</text><ellipse cx="325.5" cy="337.0527" fill="#84BE84" rx="3" ry="3" style="stroke:#038048;stroke-width:1.0;"/><text fill="#000000" font-family="sans-serif" font-size="14" lengthAdjust="spacing" textLength="122" x="334.5" y="341.3496">createLung(): Lung</text></g><!--class Creature--><g id="elem_Creature"><rect codeLine="8" fill="#F1F1F1" height="178.3477" id="Creature" rx="2.5" ry="2.5" style="stroke:#181818;stroke-width:0.5;" width="287" x="259" y="7"/><ellipse cx="370.25" cy="23" fill="#ADD1B2" rx="11" ry="11" style="stroke:#181818;stroke-width:1.0;"/><path d="M373.0156,18.875 Q373.1719,18.6563 373.3594,18.5469 Q373.5469,18.4375 373.7656,18.4375 Q374.1406,18.4375 374.375,18.7031 Q374.6094,18.9531 374.6094,19.5625 L374.6094,21.0156 Q374.6094,21.625 374.375,21.8906 Q374.1406,22.1563 373.7656,22.1563 Q373.4219,22.1563 373.2188,21.9531 Q373.0156,21.7656 372.9063,21.25 Q372.8594,20.8906 372.6719,20.7031 Q372.3438,20.3281 371.7344,20.1094 Q371.125,19.8906 370.5,19.8906 Q369.7344,19.8906 369.0938,20.2188 Q368.4688,20.5469 367.9688,21.2969 Q367.4844,22.0469 367.4844,23.0781 L367.4844,24.1719 Q367.4844,25.4063 368.375,26.2344 Q369.2656,27.0469 370.8594,27.0469 Q371.7969,27.0469 372.4531,26.7969 Q372.8438,26.6406 373.2656,26.2031 Q373.5313,25.9375 373.6719,25.8594 Q373.8281,25.7813 374.0313,25.7813 Q374.3594,25.7813 374.6094,26.0469 Q374.875,26.2969 374.875,26.6406 Q374.875,26.9844 374.5313,27.3906 Q374.0313,27.9688 373.2344,28.2969 Q372.1563,28.75 370.8594,28.75 Q369.3438,28.75 368.1406,28.125 Q367.1563,27.625 366.4688,26.5625 Q365.7813,25.4844 365.7813,24.2031 L365.7813,23.0469 Q365.7813,21.7188 366.3906,20.5781 Q367.0156,19.4219 368.1094,18.8125 Q369.2031,18.1875 370.4375,18.1875 Q371.1719,18.1875 371.8125,18.3594 Q372.4688,18.5156 373.0156,18.875 Z " fill="#000000"/><text fill="#000000" font-family="sans-serif" font-size="14" lengthAdjust="spacing" textLength="56" x="390.75" y="28.7969">Creature</text><line style="stroke:#181818;stroke-width:0.5;" x1="260" x2="545" y1="39" y2="39"/><rect fill="none" height="6" style="stroke:#C82930;stroke-width:1.0;" width="6" x="267" y="50.8105"/><text fill="#000000" font-family="sans-serif" font-size="14" lengthAdjust="spacing" textLength="73" x="279" y="58.1074">brain: Brain</text><rect fill="none" height="6" style="stroke:#C82930;stroke-width:1.0;" width="6" x="267" y="69.4316"/><text fill="#000000" font-family="sans-serif" font-size="14" lengthAdjust="spacing" textLength="75" x="279" y="76.7285">heart: Heart</text><rect fill="none" height="6" style="stroke:#C82930;stroke-width:1.0;" width="6" x="267" y="88.0527"/><text fill="#000000" font-family="sans-serif" font-size="14" lengthAdjust="spacing" textLength="67" x="279" y="95.3496">lung: Lung</text><line style="stroke:#181818;stroke-width:0.5;" x1="260" x2="545" y1="102.8633" y2="102.8633"/><ellipse cx="270" cy="117.6738" fill="#84BE84" rx="3" ry="3" style="stroke:#038048;stroke-width:1.0;"/><text fill="#000000" font-family="sans-serif" font-size="14" lengthAdjust="spacing" textLength="261" x="279" y="121.9707">Creature(factory: CreatureOrganFactory)</text><ellipse cx="270" cy="136.2949" fill="#84BE84" rx="3" ry="3" style="stroke:#038048;stroke-width:1.0;"/><text fill="#000000" font-family="sans-serif" font-size="14" lengthAdjust="spacing" textLength="104" x="279" y="140.5918">getBrain(): Brain</text><ellipse cx="270" cy="154.916" fill="#84BE84" rx="3" ry="3" style="stroke:#038048;stroke-width:1.0;"/><text fill="#000000" font-family="sans-serif" font-size="14" lengthAdjust="spacing" textLength="106" x="279" y="159.2129">getHeart(): Heart</text><ellipse cx="270" cy="173.5371" fill="#84BE84" rx="3" ry="3" style="stroke:#038048;stroke-width:1.0;"/><text fill="#000000" font-family="sans-serif" font-size="14" lengthAdjust="spacing" textLength="102" x="279" y="177.834">getLung(): Lung</text></g><!--class HumanBrain--><g id="elem_HumanBrain"><rect codeLine="19" fill="#F1F1F1" height="66.6211" id="HumanBrain" rx="2.5" ry="2.5" style="stroke:#181818;stroke-width:0.5;" width="109" x="7" y="634"/><ellipse cx="22" cy="650" fill="#ADD1B2" rx="11" ry="11" style="stroke:#181818;stroke-width:1.0;"/><path d="M24.7656,645.875 Q24.9219,645.6563 25.1094,645.5469 Q25.2969,645.4375 25.5156,645.4375 Q25.8906,645.4375 26.125,645.7031 Q26.3594,645.9531 26.3594,646.5625 L26.3594,648.0156 Q26.3594,648.625 26.125,648.8906 Q25.8906,649.1563 25.5156,649.1563 Q25.1719,649.1563 24.9688,648.9531 Q24.7656,648.7656 24.6563,648.25 Q24.6094,647.8906 24.4219,647.7031 Q24.0938,647.3281 23.4844,647.1094 Q22.875,646.8906 22.25,646.8906 Q21.4844,646.8906 20.8438,647.2188 Q20.2188,647.5469 19.7188,648.2969 Q19.2344,649.0469 19.2344,650.0781 L19.2344,651.1719 Q19.2344,652.4063 20.125,653.2344 Q21.0156,654.0469 22.6094,654.0469 Q23.5469,654.0469 24.2031,653.7969 Q24.5938,653.6406 25.0156,653.2031 Q25.2813,652.9375 25.4219,652.8594 Q25.5781,652.7813 25.7813,652.7813 Q26.1094,652.7813 26.3594,653.0469 Q26.625,653.2969 26.625,653.6406 Q26.625,653.9844 26.2813,654.3906 Q25.7813,654.9688 24.9844,655.2969 Q23.9063,655.75 22.6094,655.75 Q21.0938,655.75 19.8906,655.125 Q18.9063,654.625 18.2188,653.5625 Q17.5313,652.4844 17.5313,651.2031 L17.5313,650.0469 Q17.5313,648.7188 18.1406,647.5781 Q18.7656,646.4219 19.8594,645.8125 Q20.9531,645.1875 22.1875,645.1875 Q22.9219,645.1875 23.5625,645.3594 Q24.2188,645.5156 24.7656,645.875 Z " fill="#000000"/><text fill="#000000" font-family="sans-serif" font-size="14" lengthAdjust="spacing" textLength="77" x="36" y="655.7969">HumanBrain</text><line style="stroke:#181818;stroke-width:0.5;" x1="8" x2="115" y1="666" y2="666"/><line style="stroke:#181818;stroke-width:0.5;" x1="8" x2="115" y1="674" y2="674"/><ellipse cx="18" cy="688.8105" fill="#84BE84" rx="3" ry="3" style="stroke:#038048;stroke-width:1.0;"/><text fill="#000000" font-family="sans-serif" font-size="14" lengthAdjust="spacing" textLength="74" x="27" y="693.1074">think(): void</text></g><!--class HumanHeart--><g id="elem_HumanHeart"><rect codeLine="23" fill="#F1F1F1" height="66.6211" id="HumanHeart" rx="2.5" ry="2.5" style="stroke:#181818;stroke-width:0.5;" width="110" x="151.5" y="634"/><ellipse cx="166.5" cy="650" fill="#ADD1B2" rx="11" ry="11" style="stroke:#181818;stroke-width:1.0;"/><path d="M169.2656,645.875 Q169.4219,645.6563 169.6094,645.5469 Q169.7969,645.4375 170.0156,645.4375 Q170.3906,645.4375 170.625,645.7031 Q170.8594,645.9531 170.8594,646.5625 L170.8594,648.0156 Q170.8594,648.625 170.625,648.8906 Q170.3906,649.1563 170.0156,649.1563 Q169.6719,649.1563 169.4688,648.9531 Q169.2656,648.7656 169.1563,648.25 Q169.1094,647.8906 168.9219,647.7031 Q168.5938,647.3281 167.9844,647.1094 Q167.375,646.8906 166.75,646.8906 Q165.9844,646.8906 165.3438,647.2188 Q164.7188,647.5469 164.2188,648.2969 Q163.7344,649.0469 163.7344,650.0781 L163.7344,651.1719 Q163.7344,652.4063 164.625,653.2344 Q165.5156,654.0469 167.1094,654.0469 Q168.0469,654.0469 168.7031,653.7969 Q169.0938,653.6406 169.5156,653.2031 Q169.7813,652.9375 169.9219,652.8594 Q170.0781,652.7813 170.2813,652.7813 Q170.6094,652.7813 170.8594,653.0469 Q171.125,653.2969 171.125,653.6406 Q171.125,653.9844 170.7813,654.3906 Q170.2813,654.9688 169.4844,655.2969 Q168.4063,655.75 167.1094,655.75 Q165.5938,655.75 164.3906,655.125 Q163.4063,654.625 162.7188,653.5625 Q162.0313,652.4844 162.0313,651.2031 L162.0313,650.0469 Q162.0313,648.7188 162.6406,647.5781 Q163.2656,646.4219 164.3594,645.8125 Q165.4531,645.1875 166.6875,645.1875 Q167.4219,645.1875 168.0625,645.3594 Q168.7188,645.5156 169.2656,645.875 Z " fill="#000000"/><text fill="#000000" font-family="sans-serif" font-size="14" lengthAdjust="spacing" textLength="78" x="180.5" y="655.7969">HumanHeart</text><line style="stroke:#181818;stroke-width:0.5;" x1="152.5" x2="260.5" y1="666" y2="666"/><line style="stroke:#181818;stroke-width:0.5;" x1="152.5" x2="260.5" y1="674" y2="674"/><ellipse cx="162.5" cy="688.8105" fill="#84BE84" rx="3" ry="3" style="stroke:#038048;stroke-width:1.0;"/><text fill="#000000" font-family="sans-serif" font-size="14" lengthAdjust="spacing" textLength="72" x="171.5" y="693.1074">beat(): void</text></g><!--class HumanLung--><g id="elem_HumanLung"><rect codeLine="27" fill="#F1F1F1" height="66.6211" id="HumanLung" rx="2.5" ry="2.5" style="stroke:#181818;stroke-width:0.5;" width="119" x="297" y="634"/><ellipse cx="316.95" cy="650" fill="#ADD1B2" rx="11" ry="11" style="stroke:#181818;stroke-width:1.0;"/><path d="M319.7156,645.875 Q319.8719,645.6563 320.0594,645.5469 Q320.2469,645.4375 320.4656,645.4375 Q320.8406,645.4375 321.075,645.7031 Q321.3094,645.9531 321.3094,646.5625 L321.3094,648.0156 Q321.3094,648.625 321.075,648.8906 Q320.8406,649.1563 320.4656,649.1563 Q320.1219,649.1563 319.9188,648.9531 Q319.7156,648.7656 319.6063,648.25 Q319.5594,647.8906 319.3719,647.7031 Q319.0438,647.3281 318.4344,647.1094 Q317.825,646.8906 317.2,646.8906 Q316.4344,646.8906 315.7938,647.2188 Q315.1688,647.5469 314.6688,648.2969 Q314.1844,649.0469 314.1844,650.0781 L314.1844,651.1719 Q314.1844,652.4063 315.075,653.2344 Q315.9656,654.0469 317.5594,654.0469 Q318.4969,654.0469 319.1531,653.7969 Q319.5438,653.6406 319.9656,653.2031 Q320.2313,652.9375 320.3719,652.8594 Q320.5281,652.7813 320.7313,652.7813 Q321.0594,652.7813 321.3094,653.0469 Q321.575,653.2969 321.575,653.6406 Q321.575,653.9844 321.2313,654.3906 Q320.7313,654.9688 319.9344,655.2969 Q318.8563,655.75 317.5594,655.75 Q316.0438,655.75 314.8406,655.125 Q313.8563,654.625 313.1688,653.5625 Q312.4813,652.4844 312.4813,651.2031 L312.4813,650.0469 Q312.4813,648.7188 313.0906,647.5781 Q313.7156,646.4219 314.8094,645.8125 Q315.9031,645.1875 317.1375,645.1875 Q317.8719,645.1875 318.5125,645.3594 Q319.1688,645.5156 319.7156,645.875 Z " fill="#000000"/><text fill="#000000" font-family="sans-serif" font-size="14" lengthAdjust="spacing" textLength="76" x="332.05" y="655.7969">HumanLung</text><line style="stroke:#181818;stroke-width:0.5;" x1="298" x2="415" y1="666" y2="666"/><line style="stroke:#181818;stroke-width:0.5;" x1="298" x2="415" y1="674" y2="674"/><ellipse cx="308" cy="688.8105" fill="#84BE84" rx="3" ry="3" style="stroke:#038048;stroke-width:1.0;"/><text fill="#000000" font-family="sans-serif" font-size="14" lengthAdjust="spacing" textLength="93" x="317" y="693.1074">breathe(): void</text></g><!--class HumanOrganFactory--><g id="elem_HumanOrganFactory"><rect codeLine="31" fill="#F1F1F1" height="103.8633" id="HumanOrganFactory" rx="2.5" ry="2.5" style="stroke:#181818;stroke-width:0.5;" width="164" x="224.5" y="409"/><ellipse cx="239.5" cy="425" fill="#ADD1B2" rx="11" ry="11" style="stroke:#181818;stroke-width:1.0;"/><path d="M242.2656,420.875 Q242.4219,420.6563 242.6094,420.5469 Q242.7969,420.4375 243.0156,420.4375 Q243.3906,420.4375 243.625,420.7031 Q243.8594,420.9531 243.8594,421.5625 L243.8594,423.0156 Q243.8594,423.625 243.625,423.8906 Q243.3906,424.1563 243.0156,424.1563 Q242.6719,424.1563 242.4688,423.9531 Q242.2656,423.7656 242.1563,423.25 Q242.1094,422.8906 241.9219,422.7031 Q241.5938,422.3281 240.9844,422.1094 Q240.375,421.8906 239.75,421.8906 Q238.9844,421.8906 238.3438,422.2188 Q237.7188,422.5469 237.2188,423.2969 Q236.7344,424.0469 236.7344,425.0781 L236.7344,426.1719 Q236.7344,427.4063 237.625,428.2344 Q238.5156,429.0469 240.1094,429.0469 Q241.0469,429.0469 241.7031,428.7969 Q242.0938,428.6406 242.5156,428.2031 Q242.7813,427.9375 242.9219,427.8594 Q243.0781,427.7813 243.2813,427.7813 Q243.6094,427.7813 243.8594,428.0469 Q244.125,428.2969 244.125,428.6406 Q244.125,428.9844 243.7813,429.3906 Q243.2813,429.9688 242.4844,430.2969 Q241.4063,430.75 240.1094,430.75 Q238.5938,430.75 237.3906,430.125 Q236.4063,429.625 235.7188,428.5625 Q235.0313,427.4844 235.0313,426.2031 L235.0313,425.0469 Q235.0313,423.7188 235.6406,422.5781 Q236.2656,421.4219 237.3594,420.8125 Q238.4531,420.1875 239.6875,420.1875 Q240.4219,420.1875 241.0625,420.3594 Q241.7188,420.5156 242.2656,420.875 Z " fill="#000000"/><text fill="#000000" font-family="sans-serif" font-size="14" lengthAdjust="spacing" textLength="132" x="253.5" y="430.7969">HumanOrganFactory</text><line style="stroke:#181818;stroke-width:0.5;" x1="225.5" x2="387.5" y1="441" y2="441"/><line style="stroke:#181818;stroke-width:0.5;" x1="225.5" x2="387.5" y1="449" y2="449"/><ellipse cx="235.5" cy="463.8105" fill="#84BE84" rx="3" ry="3" style="stroke:#038048;stroke-width:1.0;"/><text fill="#000000" font-family="sans-serif" font-size="14" lengthAdjust="spacing" textLength="124" x="244.5" y="468.1074">createBrain(): Brain</text><ellipse cx="235.5" cy="482.4316" fill="#84BE84" rx="3" ry="3" style="stroke:#038048;stroke-width:1.0;"/><text fill="#000000" font-family="sans-serif" font-size="14" lengthAdjust="spacing" textLength="126" x="244.5" y="486.7285">createHeart(): Heart</text><ellipse cx="235.5" cy="501.0527" fill="#84BE84" rx="3" ry="3" style="stroke:#038048;stroke-width:1.0;"/><text fill="#000000" font-family="sans-serif" font-size="14" lengthAdjust="spacing" textLength="122" x="244.5" y="505.3496">createLung(): Lung</text></g><!--class DogBrain--><g id="elem_DogBrain"><rect codeLine="37" fill="#F1F1F1" height="66.6211" id="DogBrain" rx="2.5" ry="2.5" style="stroke:#181818;stroke-width:0.5;" width="100" x="451.5" y="634"/><ellipse cx="470.55" cy="650" fill="#ADD1B2" rx="11" ry="11" style="stroke:#181818;stroke-width:1.0;"/><path d="M473.3156,645.875 Q473.4719,645.6563 473.6594,645.5469 Q473.8469,645.4375 474.0656,645.4375 Q474.4406,645.4375 474.675,645.7031 Q474.9094,645.9531 474.9094,646.5625 L474.9094,648.0156 Q474.9094,648.625 474.675,648.8906 Q474.4406,649.1563 474.0656,649.1563 Q473.7219,649.1563 473.5188,648.9531 Q473.3156,648.7656 473.2063,648.25 Q473.1594,647.8906 472.9719,647.7031 Q472.6438,647.3281 472.0344,647.1094 Q471.425,646.8906 470.8,646.8906 Q470.0344,646.8906 469.3938,647.2188 Q468.7688,647.5469 468.2688,648.2969 Q467.7844,649.0469 467.7844,650.0781 L467.7844,651.1719 Q467.7844,652.4063 468.675,653.2344 Q469.5656,654.0469 471.1594,654.0469 Q472.0969,654.0469 472.7531,653.7969 Q473.1438,653.6406 473.5656,653.2031 Q473.8313,652.9375 473.9719,652.8594 Q474.1281,652.7813 474.3313,652.7813 Q474.6594,652.7813 474.9094,653.0469 Q475.175,653.2969 475.175,653.6406 Q475.175,653.9844 474.8313,654.3906 Q474.3313,654.9688 473.5344,655.2969 Q472.4563,655.75 471.1594,655.75 Q469.6438,655.75 468.4406,655.125 Q467.4563,654.625 466.7688,653.5625 Q466.0813,652.4844 466.0813,651.2031 L466.0813,650.0469 Q466.0813,648.7188 466.6906,647.5781 Q467.3156,646.4219 468.4094,645.8125 Q469.5031,645.1875 470.7375,645.1875 Q471.4719,645.1875 472.1125,645.3594 Q472.7688,645.5156 473.3156,645.875 Z " fill="#000000"/><text fill="#000000" font-family="sans-serif" font-size="14" lengthAdjust="spacing" textLength="59" x="485.45" y="655.7969">DogBrain</text><line style="stroke:#181818;stroke-width:0.5;" x1="452.5" x2="550.5" y1="666" y2="666"/><line style="stroke:#181818;stroke-width:0.5;" x1="452.5" x2="550.5" y1="674" y2="674"/><ellipse cx="462.5" cy="688.8105" fill="#84BE84" rx="3" ry="3" style="stroke:#038048;stroke-width:1.0;"/><text fill="#000000" font-family="sans-serif" font-size="14" lengthAdjust="spacing" textLength="74" x="471.5" y="693.1074">think(): void</text></g><!--class DogHeart--><g id="elem_DogHeart"><rect codeLine="41" fill="#F1F1F1" height="66.6211" id="DogHeart" rx="2.5" ry="2.5" style="stroke:#181818;stroke-width:0.5;" width="98" x="586.5" y="634"/><ellipse cx="604.2" cy="650" fill="#ADD1B2" rx="11" ry="11" style="stroke:#181818;stroke-width:1.0;"/><path d="M606.9656,645.875 Q607.1219,645.6563 607.3094,645.5469 Q607.4969,645.4375 607.7156,645.4375 Q608.0906,645.4375 608.325,645.7031 Q608.5594,645.9531 608.5594,646.5625 L608.5594,648.0156 Q608.5594,648.625 608.325,648.8906 Q608.0906,649.1563 607.7156,649.1563 Q607.3719,649.1563 607.1688,648.9531 Q606.9656,648.7656 606.8563,648.25 Q606.8094,647.8906 606.6219,647.7031 Q606.2938,647.3281 605.6844,647.1094 Q605.075,646.8906 604.45,646.8906 Q603.6844,646.8906 603.0438,647.2188 Q602.4188,647.5469 601.9188,648.2969 Q601.4344,649.0469 601.4344,650.0781 L601.4344,651.1719 Q601.4344,652.4063 602.325,653.2344 Q603.2156,654.0469 604.8094,654.0469 Q605.7469,654.0469 606.4031,653.7969 Q606.7938,653.6406 607.2156,653.2031 Q607.4813,652.9375 607.6219,652.8594 Q607.7781,652.7813 607.9813,652.7813 Q608.3094,652.7813 608.5594,653.0469 Q608.825,653.2969 608.825,653.6406 Q608.825,653.9844 608.4813,654.3906 Q607.9813,654.9688 607.1844,655.2969 Q606.1063,655.75 604.8094,655.75 Q603.2938,655.75 602.0906,655.125 Q601.1063,654.625 600.4188,653.5625 Q599.7313,652.4844 599.7313,651.2031 L599.7313,650.0469 Q599.7313,648.7188 600.3406,647.5781 Q600.9656,646.4219 602.0594,645.8125 Q603.1531,645.1875 604.3875,645.1875 Q605.1219,645.1875 605.7625,645.3594 Q606.4188,645.5156 606.9656,645.875 Z " fill="#000000"/><text fill="#000000" font-family="sans-serif" font-size="14" lengthAdjust="spacing" textLength="60" x="618.8" y="655.7969">DogHeart</text><line style="stroke:#181818;stroke-width:0.5;" x1="587.5" x2="683.5" y1="666" y2="666"/><line style="stroke:#181818;stroke-width:0.5;" x1="587.5" x2="683.5" y1="674" y2="674"/><ellipse cx="597.5" cy="688.8105" fill="#84BE84" rx="3" ry="3" style="stroke:#038048;stroke-width:1.0;"/><text fill="#000000" font-family="sans-serif" font-size="14" lengthAdjust="spacing" textLength="72" x="606.5" y="693.1074">beat(): void</text></g><!--class DogLung--><g id="elem_DogLung"><rect codeLine="45" fill="#F1F1F1" height="66.6211" id="DogLung" rx="2.5" ry="2.5" style="stroke:#181818;stroke-width:0.5;" width="119" x="720" y="634"/><ellipse cx="748.05" cy="650" fill="#ADD1B2" rx="11" ry="11" style="stroke:#181818;stroke-width:1.0;"/><path d="M750.8156,645.875 Q750.9719,645.6563 751.1594,645.5469 Q751.3469,645.4375 751.5656,645.4375 Q751.9406,645.4375 752.175,645.7031 Q752.4094,645.9531 752.4094,646.5625 L752.4094,648.0156 Q752.4094,648.625 752.175,648.8906 Q751.9406,649.1563 751.5656,649.1563 Q751.2219,649.1563 751.0188,648.9531 Q750.8156,648.7656 750.7063,648.25 Q750.6594,647.8906 750.4719,647.7031 Q750.1438,647.3281 749.5344,647.1094 Q748.925,646.8906 748.3,646.8906 Q747.5344,646.8906 746.8938,647.2188 Q746.2688,647.5469 745.7688,648.2969 Q745.2844,649.0469 745.2844,650.0781 L745.2844,651.1719 Q745.2844,652.4063 746.175,653.2344 Q747.0656,654.0469 748.6594,654.0469 Q749.5969,654.0469 750.2531,653.7969 Q750.6438,653.6406 751.0656,653.2031 Q751.3313,652.9375 751.4719,652.8594 Q751.6281,652.7813 751.8313,652.7813 Q752.1594,652.7813 752.4094,653.0469 Q752.675,653.2969 752.675,653.6406 Q752.675,653.9844 752.3313,654.3906 Q751.8313,654.9688 751.0344,655.2969 Q749.9563,655.75 748.6594,655.75 Q747.1438,655.75 745.9406,655.125 Q744.9563,654.625 744.2688,653.5625 Q743.5813,652.4844 743.5813,651.2031 L743.5813,650.0469 Q743.5813,648.7188 744.1906,647.5781 Q744.8156,646.4219 745.9094,645.8125 Q747.0031,645.1875 748.2375,645.1875 Q748.9719,645.1875 749.6125,645.3594 Q750.2688,645.5156 750.8156,645.875 Z " fill="#000000"/><text fill="#000000" font-family="sans-serif" font-size="14" lengthAdjust="spacing" textLength="58" x="764.95" y="655.7969">DogLung</text><line style="stroke:#181818;stroke-width:0.5;" x1="721" x2="838" y1="666" y2="666"/><line style="stroke:#181818;stroke-width:0.5;" x1="721" x2="838" y1="674" y2="674"/><ellipse cx="731" cy="688.8105" fill="#84BE84" rx="3" ry="3" style="stroke:#038048;stroke-width:1.0;"/><text fill="#000000" font-family="sans-serif" font-size="14" lengthAdjust="spacing" textLength="93" x="740" y="693.1074">breathe(): void</text></g><!--class DogOrganFactory--><g id="elem_DogOrganFactory"><rect codeLine="49" fill="#F1F1F1" height="103.8633" id="DogOrganFactory" rx="2.5" ry="2.5" style="stroke:#181818;stroke-width:0.5;" width="152" x="474.5" y="409"/><ellipse cx="492.2" cy="425" fill="#ADD1B2" rx="11" ry="11" style="stroke:#181818;stroke-width:1.0;"/><path d="M494.9656,420.875 Q495.1219,420.6563 495.3094,420.5469 Q495.4969,420.4375 495.7156,420.4375 Q496.0906,420.4375 496.325,420.7031 Q496.5594,420.9531 496.5594,421.5625 L496.5594,423.0156 Q496.5594,423.625 496.325,423.8906 Q496.0906,424.1563 495.7156,424.1563 Q495.3719,424.1563 495.1688,423.9531 Q494.9656,423.7656 494.8563,423.25 Q494.8094,422.8906 494.6219,422.7031 Q494.2938,422.3281 493.6844,422.1094 Q493.075,421.8906 492.45,421.8906 Q491.6844,421.8906 491.0438,422.2188 Q490.4188,422.5469 489.9188,423.2969 Q489.4344,424.0469 489.4344,425.0781 L489.4344,426.1719 Q489.4344,427.4063 490.325,428.2344 Q491.2156,429.0469 492.8094,429.0469 Q493.7469,429.0469 494.4031,428.7969 Q494.7938,428.6406 495.2156,428.2031 Q495.4813,427.9375 495.6219,427.8594 Q495.7781,427.7813 495.9813,427.7813 Q496.3094,427.7813 496.5594,428.0469 Q496.825,428.2969 496.825,428.6406 Q496.825,428.9844 496.4813,429.3906 Q495.9813,429.9688 495.1844,430.2969 Q494.1063,430.75 492.8094,430.75 Q491.2938,430.75 490.0906,430.125 Q489.1063,429.625 488.4188,428.5625 Q487.7313,427.4844 487.7313,426.2031 L487.7313,425.0469 Q487.7313,423.7188 488.3406,422.5781 Q488.9656,421.4219 490.0594,420.8125 Q491.1531,420.1875 492.3875,420.1875 Q493.1219,420.1875 493.7625,420.3594 Q494.4188,420.5156 494.9656,420.875 Z " fill="#000000"/><text fill="#000000" font-family="sans-serif" font-size="14" lengthAdjust="spacing" textLength="114" x="506.8" y="430.7969">DogOrganFactory</text><line style="stroke:#181818;stroke-width:0.5;" x1="475.5" x2="625.5" y1="441" y2="441"/><line style="stroke:#181818;stroke-width:0.5;" x1="475.5" x2="625.5" y1="449" y2="449"/><ellipse cx="485.5" cy="463.8105" fill="#84BE84" rx="3" ry="3" style="stroke:#038048;stroke-width:1.0;"/><text fill="#000000" font-family="sans-serif" font-size="14" lengthAdjust="spacing" textLength="124" x="494.5" y="468.1074">createBrain(): Brain</text><ellipse cx="485.5" cy="482.4316" fill="#84BE84" rx="3" ry="3" style="stroke:#038048;stroke-width:1.0;"/><text fill="#000000" font-family="sans-serif" font-size="14" lengthAdjust="spacing" textLength="126" x="494.5" y="486.7285">createHeart(): Heart</text><ellipse cx="485.5" cy="501.0527" fill="#84BE84" rx="3" ry="3" style="stroke:#038048;stroke-width:1.0;"/><text fill="#000000" font-family="sans-serif" font-size="14" lengthAdjust="spacing" textLength="122" x="494.5" y="505.3496">createLung(): Lung</text></g><!--link Creature to CreatureOrganFactory--><g id="link_Creature_CreatureOrganFactory"><path codeLine="55" d="M402.5,185.15 C402.5,203.62 402.5,222.61 402.5,239.55 " fill="none" id="Creature-to-CreatureOrganFactory" style="stroke:#181818;stroke-width:1.0;stroke-dasharray:7.0,7.0;"/><polygon fill="#181818" points="402.5,244.73,406.5,235.73,402.5,239.73,398.5,235.73,402.5,244.73" style="stroke:#181818;stroke-width:1.0;"/></g><!--reverse link CreatureOrganFactory to HumanOrganFactory--><g id="link_CreatureOrganFactory_HumanOrganFactory"><path codeLine="57" d="M361.78,366.72 C353.42,380.83 344.76,395.44 336.84,408.8 " fill="none" id="CreatureOrganFactory-backto-HumanOrganFactory" style="stroke:#181818;stroke-width:1.0;stroke-dasharray:7.0,7.0;"/><polygon fill="none" points="355.91,362.9,372.12,349.26,367.95,370.03,355.91,362.9" style="stroke:#181818;stroke-width:1.0;"/></g><!--link HumanOrganFactory to HumanBrain--><g id="link_HumanOrganFactory_HumanBrain"><path codeLine="58" d="M245.31,513.08 C201.55,549.6 143.72,597.87 104.71,630.43 " fill="none" id="HumanOrganFactory-to-HumanBrain" style="stroke:#181818;stroke-width:1.0;stroke-dasharray:7.0,7.0;"/><polygon fill="#181818" points="100.52,633.93,109.9957,631.2447,104.3623,630.7305,104.8765,625.097,100.52,633.93" style="stroke:#181818;stroke-width:1.0;"/></g><!--link HumanOrganFactory to HumanHeart--><g id="link_HumanOrganFactory_HumanHeart"><path codeLine="59" d="M281.52,513.08 C263.88,549.16 240.63,596.7 224.72,629.24 " fill="none" id="HumanOrganFactory-to-HumanHeart" style="stroke:#181818;stroke-width:1.0;stroke-dasharray:7.0,7.0;"/><polygon fill="#181818" points="222.43,633.93,229.9602,627.582,224.6145,629.4325,222.7641,624.0868,222.43,633.93" style="stroke:#181818;stroke-width:1.0;"/></g><!--link HumanOrganFactory to HumanLung--><g id="link_HumanOrganFactory_HumanLung"><path codeLine="60" d="M318.99,513.08 C327.77,549.01 339.34,596.31 347.29,628.84 " fill="none" id="HumanOrganFactory-to-HumanLung" style="stroke:#181818;stroke-width:1.0;stroke-dasharray:7.0,7.0;"/><polygon fill="#181818" points="348.54,633.93,350.2646,624.2333,347.3408,629.0759,342.4981,626.1521,348.54,633.93" style="stroke:#181818;stroke-width:1.0;"/></g><!--reverse link CreatureOrganFactory to DogOrganFactory--><g id="link_CreatureOrganFactory_DogOrganFactory"><path codeLine="62" d="M463.14,364.37 C476.68,379.2 490.84,394.7 503.72,408.8 " fill="none" id="CreatureOrganFactory-backto-DogOrganFactory" style="stroke:#181818;stroke-width:1.0;stroke-dasharray:7.0,7.0;"/><polygon fill="none" points="457.65,368.75,449.33,349.26,467.99,359.3,457.65,368.75" style="stroke:#181818;stroke-width:1.0;"/></g><!--link DogOrganFactory to DogBrain--><g id="link_DogOrganFactory_DogBrain"><path codeLine="63" d="M538.26,513.08 C529.65,549.01 518.32,596.31 510.52,628.84 " fill="none" id="DogOrganFactory-to-DogBrain" style="stroke:#181818;stroke-width:1.0;stroke-dasharray:7.0,7.0;"/><polygon fill="#181818" points="509.3,633.93,515.2768,626.102,510.4587,629.0661,507.4946,624.248,509.3,633.93" style="stroke:#181818;stroke-width:1.0;"/></g><!--link DogOrganFactory to DogHeart--><g id="link_DogOrganFactory_DogHeart"><path codeLine="64" d="M571.73,513.08 C586.73,549.16 606.49,596.7 620.01,629.24 " fill="none" id="DogOrganFactory-to-DogHeart" style="stroke:#181818;stroke-width:1.0;stroke-dasharray:7.0,7.0;"/><polygon fill="#181818" points="621.96,633.93,622.2059,624.0842,620.044,629.3117,614.8166,627.1498,621.96,633.93" style="stroke:#181818;stroke-width:1.0;"/></g><!--link DogOrganFactory to DogLung--><g id="link_DogOrganFactory_DogLung"><path codeLine="65" d="M607.7,513.08 C648.6,549.6 702.65,597.87 739.11,630.43 " fill="none" id="DogOrganFactory-to-DogLung" style="stroke:#181818;stroke-width:1.0;stroke-dasharray:7.0,7.0;"/><polygon fill="#181818" points="743.02,633.93,738.9699,624.9524,739.2901,630.6002,733.6423,630.9203,743.02,633.93" style="stroke:#181818;stroke-width:1.0;"/></g><!--SRC=[lP9D3e8m48NtFKMN44CFG8mBDOQ5YMSeM7uYbgGK4wFUtKxvXvQmKJOqdIzltkjCnYKJCOqOFWX6PINOHIIKdsWa2_74BuJLjy4H5DbUq8mxhe_rOLGA61KIIlemAfqhda05_kY3K9JJikpQDIqy78BcKDh3AMWD9JsSAv56gcdI2ZbnxTat9d4REc7Ic4BT6oEeUxF_eBfJhXMwHv9fncz0FehiEY6rPaU6og05X2uz1qbIPa7_DAbZaQpAgRWrAHMsBgC2Vvwmsq92TiQzwP6Hb-sRaFaGq7mi18JxNLaaQhjBHBttTaUJ9qFJ9zHAxJojrTg7hQezV040]--></g></svg>