<?xml version="1.0" encoding="us-ascii" standalone="no"?><svg xmlns="http://www.w3.org/2000/svg" xmlns:xlink="http://www.w3.org/1999/xlink" contentStyleType="text/css" height="445px" preserveAspectRatio="none" style="width:845px;height:445px;background:#FFFFFF;" version="1.1" viewBox="0 0 845 445" width="845px" zoomAndPan="magnify"><defs/><g><!--class Brain--><g id="elem_Brain"><rect codeLine="2" fill="#F1F1F1" height="66.6211" id="Brain" rx="2.5" ry="2.5" style="stroke:#181818;stroke-width:0.5;" width="100" x="151.5" y="245"/><ellipse cx="182.25" cy="261" fill="#B4A7E5" rx="11" ry="11" style="stroke:#181818;stroke-width:1.0;"/><path d="M183.2031,257.6406 L183.2031,264.2969 L184.9219,264.2969 Q185.5313,264.2969 185.7969,264.5313 Q186.0625,264.7656 186.0625,265.1563 Q186.0625,265.5313 185.7969,265.7656 Q185.5313,266 184.9219,266 L179.7813,266 Q179.1719,266 178.9063,265.7656 Q178.6406,265.5313 178.6406,265.1406 Q178.6406,264.7656 178.9063,264.5313 Q179.1719,264.2969 179.7813,264.2969 L181.5,264.2969 L181.5,257.6406 L179.7813,257.6406 Q179.1719,257.6406 178.9063,257.4063 Q178.6406,257.1719 178.6406,256.7813 Q178.6406,256.4063 178.9063,256.1719 Q179.1719,255.9375 179.7813,255.9375 L184.9219,255.9375 Q185.5313,255.9375 185.7969,256.1719 Q186.0625,256.4063 186.0625,256.7813 Q186.0625,257.1719 185.7969,257.4063 Q185.5313,257.6406 184.9219,257.6406 L183.2031,257.6406 Z " fill="#000000"/><text fill="#000000" font-family="sans-serif" font-size="14" font-style="italic" lengthAdjust="spacing" textLength="33" x="199.75" y="266.7969">Brain</text><line style="stroke:#181818;stroke-width:0.5;" x1="152.5" x2="250.5" y1="277" y2="277"/><line style="stroke:#181818;stroke-width:0.5;" x1="152.5" x2="250.5" y1="285" y2="285"/><ellipse cx="162.5" cy="299.8105" fill="#84BE84" rx="3" ry="3" style="stroke:#038048;stroke-width:1.0;"/><text fill="#000000" font-family="sans-serif" font-size="14" lengthAdjust="spacing" textLength="74" x="171.5" y="304.1074">think(): void</text></g><!--class Heart--><g id="elem_Heart"><rect codeLine="6" fill="#F1F1F1" height="66.6211" id="Heart" rx="2.5" ry="2.5" style="stroke:#181818;stroke-width:0.5;" width="98" x="361.5" y="245"/><ellipse cx="390.45" cy="261" fill="#B4A7E5" rx="11" ry="11" style="stroke:#181818;stroke-width:1.0;"/><path d="M391.4031,257.6406 L391.4031,264.2969 L393.1219,264.2969 Q393.7313,264.2969 393.9969,264.5313 Q394.2625,264.7656 394.2625,265.1563 Q394.2625,265.5313 393.9969,265.7656 Q393.7313,266 393.1219,266 L387.9813,266 Q387.3719,266 387.1063,265.7656 Q386.8406,265.5313 386.8406,265.1406 Q386.8406,264.7656 387.1063,264.5313 Q387.3719,264.2969 387.9813,264.2969 L389.7,264.2969 L389.7,257.6406 L387.9813,257.6406 Q387.3719,257.6406 387.1063,257.4063 Q386.8406,257.1719 386.8406,256.7813 Q386.8406,256.4063 387.1063,256.1719 Q387.3719,255.9375 387.9813,255.9375 L393.1219,255.9375 Q393.7313,255.9375 393.9969,256.1719 Q394.2625,256.4063 394.2625,256.7813 Q394.2625,257.1719 393.9969,257.4063 Q393.7313,257.6406 393.1219,257.6406 L391.4031,257.6406 Z " fill="#000000"/><text fill="#000000" font-family="sans-serif" font-size="14" font-style="italic" lengthAdjust="spacing" textLength="35" x="407.55" y="266.7969">Heart</text><line style="stroke:#181818;stroke-width:0.5;" x1="362.5" x2="458.5" y1="277" y2="277"/><line style="stroke:#181818;stroke-width:0.5;" x1="362.5" x2="458.5" y1="285" y2="285"/><ellipse cx="372.5" cy="299.8105" fill="#84BE84" rx="3" ry="3" style="stroke:#038048;stroke-width:1.0;"/><text fill="#000000" font-family="sans-serif" font-size="14" lengthAdjust="spacing" textLength="72" x="381.5" y="304.1074">beat(): void</text></g><!--class Lung--><g id="elem_Lung"><rect codeLine="10" fill="#F1F1F1" height="66.6211" id="Lung" rx="2.5" ry="2.5" style="stroke:#181818;stroke-width:0.5;" width="119" x="565" y="245"/><ellipse cx="604.75" cy="261" fill="#B4A7E5" rx="11" ry="11" style="stroke:#181818;stroke-width:1.0;"/><path d="M605.7031,257.6406 L605.7031,264.2969 L607.4219,264.2969 Q608.0313,264.2969 608.2969,264.5313 Q608.5625,264.7656 608.5625,265.1563 Q608.5625,265.5313 608.2969,265.7656 Q608.0313,266 607.4219,266 L602.2813,266 Q601.6719,266 601.4063,265.7656 Q601.1406,265.5313 601.1406,265.1406 Q601.1406,264.7656 601.4063,264.5313 Q601.6719,264.2969 602.2813,264.2969 L604,264.2969 L604,257.6406 L602.2813,257.6406 Q601.6719,257.6406 601.4063,257.4063 Q601.1406,257.1719 601.1406,256.7813 Q601.1406,256.4063 601.4063,256.1719 Q601.6719,255.9375 602.2813,255.9375 L607.4219,255.9375 Q608.0313,255.9375 608.2969,256.1719 Q608.5625,256.4063 608.5625,256.7813 Q608.5625,257.1719 608.2969,257.4063 Q608.0313,257.6406 607.4219,257.6406 L605.7031,257.6406 Z " fill="#000000"/><text fill="#000000" font-family="sans-serif" font-size="14" font-style="italic" lengthAdjust="spacing" textLength="32" x="624.25" y="266.7969">Lung</text><line style="stroke:#181818;stroke-width:0.5;" x1="566" x2="683" y1="277" y2="277"/><line style="stroke:#181818;stroke-width:0.5;" x1="566" x2="683" y1="285" y2="285"/><ellipse cx="576" cy="299.8105" fill="#84BE84" rx="3" ry="3" style="stroke:#038048;stroke-width:1.0;"/><text fill="#000000" font-family="sans-serif" font-size="14" lengthAdjust="spacing" textLength="93" x="585" y="304.1074">breathe(): void</text></g><!--class Creature--><g id="elem_Creature"><rect codeLine="14" fill="#F1F1F1" height="178.3477" id="Creature" rx="2.5" ry="2.5" style="stroke:#181818;stroke-width:0.5;" width="323" x="249" y="7"/><ellipse cx="378.25" cy="23" fill="#ADD1B2" rx="11" ry="11" style="stroke:#181818;stroke-width:1.0;"/><path d="M381.0156,18.875 Q381.1719,18.6563 381.3594,18.5469 Q381.5469,18.4375 381.7656,18.4375 Q382.1406,18.4375 382.375,18.7031 Q382.6094,18.9531 382.6094,19.5625 L382.6094,21.0156 Q382.6094,21.625 382.375,21.8906 Q382.1406,22.1563 381.7656,22.1563 Q381.4219,22.1563 381.2188,21.9531 Q381.0156,21.7656 380.9063,21.25 Q380.8594,20.8906 380.6719,20.7031 Q380.3438,20.3281 379.7344,20.1094 Q379.125,19.8906 378.5,19.8906 Q377.7344,19.8906 377.0938,20.2188 Q376.4688,20.5469 375.9688,21.2969 Q375.4844,22.0469 375.4844,23.0781 L375.4844,24.1719 Q375.4844,25.4063 376.375,26.2344 Q377.2656,27.0469 378.8594,27.0469 Q379.7969,27.0469 380.4531,26.7969 Q380.8438,26.6406 381.2656,26.2031 Q381.5313,25.9375 381.6719,25.8594 Q381.8281,25.7813 382.0313,25.7813 Q382.3594,25.7813 382.6094,26.0469 Q382.875,26.2969 382.875,26.6406 Q382.875,26.9844 382.5313,27.3906 Q382.0313,27.9688 381.2344,28.2969 Q380.1563,28.75 378.8594,28.75 Q377.3438,28.75 376.1406,28.125 Q375.1563,27.625 374.4688,26.5625 Q373.7813,25.4844 373.7813,24.2031 L373.7813,23.0469 Q373.7813,21.7188 374.3906,20.5781 Q375.0156,19.4219 376.1094,18.8125 Q377.2031,18.1875 378.4375,18.1875 Q379.1719,18.1875 379.8125,18.3594 Q380.4688,18.5156 381.0156,18.875 Z " fill="#000000"/><text fill="#000000" font-family="sans-serif" font-size="14" lengthAdjust="spacing" textLength="56" x="398.75" y="28.7969">Creature</text><line style="stroke:#181818;stroke-width:0.5;" x1="250" x2="571" y1="39" y2="39"/><rect fill="none" height="6" style="stroke:#C82930;stroke-width:1.0;" width="6" x="257" y="50.8105"/><text fill="#000000" font-family="sans-serif" font-size="14" lengthAdjust="spacing" textLength="73" x="269" y="58.1074">brain: Brain</text><rect fill="none" height="6" style="stroke:#C82930;stroke-width:1.0;" width="6" x="257" y="69.4316"/><text fill="#000000" font-family="sans-serif" font-size="14" lengthAdjust="spacing" textLength="75" x="269" y="76.7285">heart: Heart</text><rect fill="none" height="6" style="stroke:#C82930;stroke-width:1.0;" width="6" x="257" y="88.0527"/><text fill="#000000" font-family="sans-serif" font-size="14" lengthAdjust="spacing" textLength="67" x="269" y="95.3496">lung: Lung</text><line style="stroke:#181818;stroke-width:0.5;" x1="250" x2="571" y1="102.8633" y2="102.8633"/><ellipse cx="260" cy="117.6738" fill="#84BE84" rx="3" ry="3" style="stroke:#038048;stroke-width:1.0;"/><text fill="#000000" font-family="sans-serif" font-size="14" lengthAdjust="spacing" textLength="297" x="269" y="121.9707">Creature(brain: Brain, heart: Heart, lung: Lung)</text><ellipse cx="260" cy="136.2949" fill="#84BE84" rx="3" ry="3" style="stroke:#038048;stroke-width:1.0;"/><text fill="#000000" font-family="sans-serif" font-size="14" lengthAdjust="spacing" textLength="104" x="269" y="140.5918">getBrain(): Brain</text><ellipse cx="260" cy="154.916" fill="#84BE84" rx="3" ry="3" style="stroke:#038048;stroke-width:1.0;"/><text fill="#000000" font-family="sans-serif" font-size="14" lengthAdjust="spacing" textLength="106" x="269" y="159.2129">getHeart(): Heart</text><ellipse cx="260" cy="173.5371" fill="#84BE84" rx="3" ry="3" style="stroke:#038048;stroke-width:1.0;"/><text fill="#000000" font-family="sans-serif" font-size="14" lengthAdjust="spacing" textLength="102" x="269" y="177.834">getLung(): Lung</text></g><!--class HumanBrain--><g id="elem_HumanBrain"><rect codeLine="25" fill="#F1F1F1" height="66.6211" id="HumanBrain" rx="2.5" ry="2.5" style="stroke:#181818;stroke-width:0.5;" width="109" x="7" y="372"/><ellipse cx="22" cy="388" fill="#ADD1B2" rx="11" ry="11" style="stroke:#181818;stroke-width:1.0;"/><path d="M24.7656,383.875 Q24.9219,383.6563 25.1094,383.5469 Q25.2969,383.4375 25.5156,383.4375 Q25.8906,383.4375 26.125,383.7031 Q26.3594,383.9531 26.3594,384.5625 L26.3594,386.0156 Q26.3594,386.625 26.125,386.8906 Q25.8906,387.1563 25.5156,387.1563 Q25.1719,387.1563 24.9688,386.9531 Q24.7656,386.7656 24.6563,386.25 Q24.6094,385.8906 24.4219,385.7031 Q24.0938,385.3281 23.4844,385.1094 Q22.875,384.8906 22.25,384.8906 Q21.4844,384.8906 20.8438,385.2188 Q20.2188,385.5469 19.7188,386.2969 Q19.2344,387.0469 19.2344,388.0781 L19.2344,389.1719 Q19.2344,390.4063 20.125,391.2344 Q21.0156,392.0469 22.6094,392.0469 Q23.5469,392.0469 24.2031,391.7969 Q24.5938,391.6406 25.0156,391.2031 Q25.2813,390.9375 25.4219,390.8594 Q25.5781,390.7813 25.7813,390.7813 Q26.1094,390.7813 26.3594,391.0469 Q26.625,391.2969 26.625,391.6406 Q26.625,391.9844 26.2813,392.3906 Q25.7813,392.9688 24.9844,393.2969 Q23.9063,393.75 22.6094,393.75 Q21.0938,393.75 19.8906,393.125 Q18.9063,392.625 18.2188,391.5625 Q17.5313,390.4844 17.5313,389.2031 L17.5313,388.0469 Q17.5313,386.7188 18.1406,385.5781 Q18.7656,384.4219 19.8594,383.8125 Q20.9531,383.1875 22.1875,383.1875 Q22.9219,383.1875 23.5625,383.3594 Q24.2188,383.5156 24.7656,383.875 Z " fill="#000000"/><text fill="#000000" font-family="sans-serif" font-size="14" lengthAdjust="spacing" textLength="77" x="36" y="393.7969">HumanBrain</text><line style="stroke:#181818;stroke-width:0.5;" x1="8" x2="115" y1="404" y2="404"/><line style="stroke:#181818;stroke-width:0.5;" x1="8" x2="115" y1="412" y2="412"/><ellipse cx="18" cy="426.8105" fill="#84BE84" rx="3" ry="3" style="stroke:#038048;stroke-width:1.0;"/><text fill="#000000" font-family="sans-serif" font-size="14" lengthAdjust="spacing" textLength="74" x="27" y="431.1074">think(): void</text></g><!--class HumanHeart--><g id="elem_HumanHeart"><rect codeLine="29" fill="#F1F1F1" height="66.6211" id="HumanHeart" rx="2.5" ry="2.5" style="stroke:#181818;stroke-width:0.5;" width="110" x="286.5" y="372"/><ellipse cx="301.5" cy="388" fill="#ADD1B2" rx="11" ry="11" style="stroke:#181818;stroke-width:1.0;"/><path d="M304.2656,383.875 Q304.4219,383.6563 304.6094,383.5469 Q304.7969,383.4375 305.0156,383.4375 Q305.3906,383.4375 305.625,383.7031 Q305.8594,383.9531 305.8594,384.5625 L305.8594,386.0156 Q305.8594,386.625 305.625,386.8906 Q305.3906,387.1563 305.0156,387.1563 Q304.6719,387.1563 304.4688,386.9531 Q304.2656,386.7656 304.1563,386.25 Q304.1094,385.8906 303.9219,385.7031 Q303.5938,385.3281 302.9844,385.1094 Q302.375,384.8906 301.75,384.8906 Q300.9844,384.8906 300.3438,385.2188 Q299.7188,385.5469 299.2188,386.2969 Q298.7344,387.0469 298.7344,388.0781 L298.7344,389.1719 Q298.7344,390.4063 299.625,391.2344 Q300.5156,392.0469 302.1094,392.0469 Q303.0469,392.0469 303.7031,391.7969 Q304.0938,391.6406 304.5156,391.2031 Q304.7813,390.9375 304.9219,390.8594 Q305.0781,390.7813 305.2813,390.7813 Q305.6094,390.7813 305.8594,391.0469 Q306.125,391.2969 306.125,391.6406 Q306.125,391.9844 305.7813,392.3906 Q305.2813,392.9688 304.4844,393.2969 Q303.4063,393.75 302.1094,393.75 Q300.5938,393.75 299.3906,393.125 Q298.4063,392.625 297.7188,391.5625 Q297.0313,390.4844 297.0313,389.2031 L297.0313,388.0469 Q297.0313,386.7188 297.6406,385.5781 Q298.2656,384.4219 299.3594,383.8125 Q300.4531,383.1875 301.6875,383.1875 Q302.4219,383.1875 303.0625,383.3594 Q303.7188,383.5156 304.2656,383.875 Z " fill="#000000"/><text fill="#000000" font-family="sans-serif" font-size="14" lengthAdjust="spacing" textLength="78" x="315.5" y="393.7969">HumanHeart</text><line style="stroke:#181818;stroke-width:0.5;" x1="287.5" x2="395.5" y1="404" y2="404"/><line style="stroke:#181818;stroke-width:0.5;" x1="287.5" x2="395.5" y1="412" y2="412"/><ellipse cx="297.5" cy="426.8105" fill="#84BE84" rx="3" ry="3" style="stroke:#038048;stroke-width:1.0;"/><text fill="#000000" font-family="sans-serif" font-size="14" lengthAdjust="spacing" textLength="72" x="306.5" y="431.1074">beat(): void</text></g><!--class HumanLung--><g id="elem_HumanLung"><rect codeLine="33" fill="#F1F1F1" height="66.6211" id="HumanLung" rx="2.5" ry="2.5" style="stroke:#181818;stroke-width:0.5;" width="119" x="565" y="372"/><ellipse cx="584.95" cy="388" fill="#ADD1B2" rx="11" ry="11" style="stroke:#181818;stroke-width:1.0;"/><path d="M587.7156,383.875 Q587.8719,383.6563 588.0594,383.5469 Q588.2469,383.4375 588.4656,383.4375 Q588.8406,383.4375 589.075,383.7031 Q589.3094,383.9531 589.3094,384.5625 L589.3094,386.0156 Q589.3094,386.625 589.075,386.8906 Q588.8406,387.1563 588.4656,387.1563 Q588.1219,387.1563 587.9188,386.9531 Q587.7156,386.7656 587.6063,386.25 Q587.5594,385.8906 587.3719,385.7031 Q587.0438,385.3281 586.4344,385.1094 Q585.825,384.8906 585.2,384.8906 Q584.4344,384.8906 583.7938,385.2188 Q583.1688,385.5469 582.6688,386.2969 Q582.1844,387.0469 582.1844,388.0781 L582.1844,389.1719 Q582.1844,390.4063 583.075,391.2344 Q583.9656,392.0469 585.5594,392.0469 Q586.4969,392.0469 587.1531,391.7969 Q587.5438,391.6406 587.9656,391.2031 Q588.2313,390.9375 588.3719,390.8594 Q588.5281,390.7813 588.7313,390.7813 Q589.0594,390.7813 589.3094,391.0469 Q589.575,391.2969 589.575,391.6406 Q589.575,391.9844 589.2313,392.3906 Q588.7313,392.9688 587.9344,393.2969 Q586.8563,393.75 585.5594,393.75 Q584.0438,393.75 582.8406,393.125 Q581.8563,392.625 581.1688,391.5625 Q580.4813,390.4844 580.4813,389.2031 L580.4813,388.0469 Q580.4813,386.7188 581.0906,385.5781 Q581.7156,384.4219 582.8094,383.8125 Q583.9031,383.1875 585.1375,383.1875 Q585.8719,383.1875 586.5125,383.3594 Q587.1688,383.5156 587.7156,383.875 Z " fill="#000000"/><text fill="#000000" font-family="sans-serif" font-size="14" lengthAdjust="spacing" textLength="76" x="600.05" y="393.7969">HumanLung</text><line style="stroke:#181818;stroke-width:0.5;" x1="566" x2="683" y1="404" y2="404"/><line style="stroke:#181818;stroke-width:0.5;" x1="566" x2="683" y1="412" y2="412"/><ellipse cx="576" cy="426.8105" fill="#84BE84" rx="3" ry="3" style="stroke:#038048;stroke-width:1.0;"/><text fill="#000000" font-family="sans-serif" font-size="14" lengthAdjust="spacing" textLength="93" x="585" y="431.1074">breathe(): void</text></g><!--class DogBrain--><g id="elem_DogBrain"><rect codeLine="37" fill="#F1F1F1" height="66.6211" id="DogBrain" rx="2.5" ry="2.5" style="stroke:#181818;stroke-width:0.5;" width="100" x="151.5" y="372"/><ellipse cx="170.55" cy="388" fill="#ADD1B2" rx="11" ry="11" style="stroke:#181818;stroke-width:1.0;"/><path d="M173.3156,383.875 Q173.4719,383.6563 173.6594,383.5469 Q173.8469,383.4375 174.0656,383.4375 Q174.4406,383.4375 174.675,383.7031 Q174.9094,383.9531 174.9094,384.5625 L174.9094,386.0156 Q174.9094,386.625 174.675,386.8906 Q174.4406,387.1563 174.0656,387.1563 Q173.7219,387.1563 173.5188,386.9531 Q173.3156,386.7656 173.2063,386.25 Q173.1594,385.8906 172.9719,385.7031 Q172.6438,385.3281 172.0344,385.1094 Q171.425,384.8906 170.8,384.8906 Q170.0344,384.8906 169.3938,385.2188 Q168.7688,385.5469 168.2688,386.2969 Q167.7844,387.0469 167.7844,388.0781 L167.7844,389.1719 Q167.7844,390.4063 168.675,391.2344 Q169.5656,392.0469 171.1594,392.0469 Q172.0969,392.0469 172.7531,391.7969 Q173.1438,391.6406 173.5656,391.2031 Q173.8313,390.9375 173.9719,390.8594 Q174.1281,390.7813 174.3313,390.7813 Q174.6594,390.7813 174.9094,391.0469 Q175.175,391.2969 175.175,391.6406 Q175.175,391.9844 174.8313,392.3906 Q174.3313,392.9688 173.5344,393.2969 Q172.4563,393.75 171.1594,393.75 Q169.6438,393.75 168.4406,393.125 Q167.4563,392.625 166.7688,391.5625 Q166.0813,390.4844 166.0813,389.2031 L166.0813,388.0469 Q166.0813,386.7188 166.6906,385.5781 Q167.3156,384.4219 168.4094,383.8125 Q169.5031,383.1875 170.7375,383.1875 Q171.4719,383.1875 172.1125,383.3594 Q172.7688,383.5156 173.3156,383.875 Z " fill="#000000"/><text fill="#000000" font-family="sans-serif" font-size="14" lengthAdjust="spacing" textLength="59" x="185.45" y="393.7969">DogBrain</text><line style="stroke:#181818;stroke-width:0.5;" x1="152.5" x2="250.5" y1="404" y2="404"/><line style="stroke:#181818;stroke-width:0.5;" x1="152.5" x2="250.5" y1="412" y2="412"/><ellipse cx="162.5" cy="426.8105" fill="#84BE84" rx="3" ry="3" style="stroke:#038048;stroke-width:1.0;"/><text fill="#000000" font-family="sans-serif" font-size="14" lengthAdjust="spacing" textLength="74" x="171.5" y="431.1074">think(): void</text></g><!--class DogHeart--><g id="elem_DogHeart"><rect codeLine="41" fill="#F1F1F1" height="66.6211" id="DogHeart" rx="2.5" ry="2.5" style="stroke:#181818;stroke-width:0.5;" width="98" x="431.5" y="372"/><ellipse cx="449.2" cy="388" fill="#ADD1B2" rx="11" ry="11" style="stroke:#181818;stroke-width:1.0;"/><path d="M451.9656,383.875 Q452.1219,383.6563 452.3094,383.5469 Q452.4969,383.4375 452.7156,383.4375 Q453.0906,383.4375 453.325,383.7031 Q453.5594,383.9531 453.5594,384.5625 L453.5594,386.0156 Q453.5594,386.625 453.325,386.8906 Q453.0906,387.1563 452.7156,387.1563 Q452.3719,387.1563 452.1688,386.9531 Q451.9656,386.7656 451.8563,386.25 Q451.8094,385.8906 451.6219,385.7031 Q451.2938,385.3281 450.6844,385.1094 Q450.075,384.8906 449.45,384.8906 Q448.6844,384.8906 448.0438,385.2188 Q447.4188,385.5469 446.9188,386.2969 Q446.4344,387.0469 446.4344,388.0781 L446.4344,389.1719 Q446.4344,390.4063 447.325,391.2344 Q448.2156,392.0469 449.8094,392.0469 Q450.7469,392.0469 451.4031,391.7969 Q451.7938,391.6406 452.2156,391.2031 Q452.4813,390.9375 452.6219,390.8594 Q452.7781,390.7813 452.9813,390.7813 Q453.3094,390.7813 453.5594,391.0469 Q453.825,391.2969 453.825,391.6406 Q453.825,391.9844 453.4813,392.3906 Q452.9813,392.9688 452.1844,393.2969 Q451.1063,393.75 449.8094,393.75 Q448.2938,393.75 447.0906,393.125 Q446.1063,392.625 445.4188,391.5625 Q444.7313,390.4844 444.7313,389.2031 L444.7313,388.0469 Q444.7313,386.7188 445.3406,385.5781 Q445.9656,384.4219 447.0594,383.8125 Q448.1531,383.1875 449.3875,383.1875 Q450.1219,383.1875 450.7625,383.3594 Q451.4188,383.5156 451.9656,383.875 Z " fill="#000000"/><text fill="#000000" font-family="sans-serif" font-size="14" lengthAdjust="spacing" textLength="60" x="463.8" y="393.7969">DogHeart</text><line style="stroke:#181818;stroke-width:0.5;" x1="432.5" x2="528.5" y1="404" y2="404"/><line style="stroke:#181818;stroke-width:0.5;" x1="432.5" x2="528.5" y1="412" y2="412"/><ellipse cx="442.5" cy="426.8105" fill="#84BE84" rx="3" ry="3" style="stroke:#038048;stroke-width:1.0;"/><text fill="#000000" font-family="sans-serif" font-size="14" lengthAdjust="spacing" textLength="72" x="451.5" y="431.1074">beat(): void</text></g><!--class DogLung--><g id="elem_DogLung"><rect codeLine="45" fill="#F1F1F1" height="66.6211" id="DogLung" rx="2.5" ry="2.5" style="stroke:#181818;stroke-width:0.5;" width="119" x="719" y="372"/><ellipse cx="747.05" cy="388" fill="#ADD1B2" rx="11" ry="11" style="stroke:#181818;stroke-width:1.0;"/><path d="M749.8156,383.875 Q749.9719,383.6563 750.1594,383.5469 Q750.3469,383.4375 750.5656,383.4375 Q750.9406,383.4375 751.175,383.7031 Q751.4094,383.9531 751.4094,384.5625 L751.4094,386.0156 Q751.4094,386.625 751.175,386.8906 Q750.9406,387.1563 750.5656,387.1563 Q750.2219,387.1563 750.0188,386.9531 Q749.8156,386.7656 749.7063,386.25 Q749.6594,385.8906 749.4719,385.7031 Q749.1438,385.3281 748.5344,385.1094 Q747.925,384.8906 747.3,384.8906 Q746.5344,384.8906 745.8938,385.2188 Q745.2688,385.5469 744.7688,386.2969 Q744.2844,387.0469 744.2844,388.0781 L744.2844,389.1719 Q744.2844,390.4063 745.175,391.2344 Q746.0656,392.0469 747.6594,392.0469 Q748.5969,392.0469 749.2531,391.7969 Q749.6438,391.6406 750.0656,391.2031 Q750.3313,390.9375 750.4719,390.8594 Q750.6281,390.7813 750.8313,390.7813 Q751.1594,390.7813 751.4094,391.0469 Q751.675,391.2969 751.675,391.6406 Q751.675,391.9844 751.3313,392.3906 Q750.8313,392.9688 750.0344,393.2969 Q748.9563,393.75 747.6594,393.75 Q746.1438,393.75 744.9406,393.125 Q743.9563,392.625 743.2688,391.5625 Q742.5813,390.4844 742.5813,389.2031 L742.5813,388.0469 Q742.5813,386.7188 743.1906,385.5781 Q743.8156,384.4219 744.9094,383.8125 Q746.0031,383.1875 747.2375,383.1875 Q747.9719,383.1875 748.6125,383.3594 Q749.2688,383.5156 749.8156,383.875 Z " fill="#000000"/><text fill="#000000" font-family="sans-serif" font-size="14" lengthAdjust="spacing" textLength="58" x="763.95" y="393.7969">DogLung</text><line style="stroke:#181818;stroke-width:0.5;" x1="720" x2="837" y1="404" y2="404"/><line style="stroke:#181818;stroke-width:0.5;" x1="720" x2="837" y1="412" y2="412"/><ellipse cx="730" cy="426.8105" fill="#84BE84" rx="3" ry="3" style="stroke:#038048;stroke-width:1.0;"/><text fill="#000000" font-family="sans-serif" font-size="14" lengthAdjust="spacing" textLength="93" x="739" y="431.1074">breathe(): void</text></g><!--link Creature to Brain--><g id="link_Creature_Brain"><path codeLine="49" d="M308.45,185.13 C285.52,204.94 262.44,224.87 243.61,241.13 " fill="none" id="Creature-to-Brain" style="stroke:#181818;stroke-width:1.0;"/><polygon fill="#181818" points="239.42,244.75,248.8512,241.9123,243.2102,241.489,243.6336,235.848,239.42,244.75" style="stroke:#181818;stroke-width:1.0;"/></g><!--link Creature to Heart--><g id="link_Creature_Heart"><path codeLine="50" d="M410.5,185.13 C410.5,204.27 410.5,223.53 410.5,239.48 " fill="none" id="Creature-to-Heart" style="stroke:#181818;stroke-width:1.0;"/><polygon fill="#181818" points="410.5,244.75,414.5,235.75,410.5,239.75,406.5,235.75,410.5,244.75" style="stroke:#181818;stroke-width:1.0;"/></g><!--link Creature to Lung--><g id="link_Creature_Lung"><path codeLine="51" d="M514.99,185.13 C538.57,205.02 562.3,225.04 581.62,241.33 " fill="none" id="Creature-to-Lung" style="stroke:#181818;stroke-width:1.0;"/><polygon fill="#181818" points="585.93,244.97,581.6091,236.1196,582.1006,241.755,576.4652,242.2466,585.93,244.97" style="stroke:#181818;stroke-width:1.0;"/></g><!--reverse link Brain to HumanBrain--><g id="link_Brain_HumanBrain"><path codeLine="53" d="M149.91,325.57 C132.75,340.88 114.02,357.61 98.22,371.71 " fill="none" id="Brain-backto-HumanBrain" style="stroke:#181818;stroke-width:1.0;stroke-dasharray:7.0,7.0;"/><polygon fill="none" points="145.5,320.11,165.08,312.02,154.83,330.56,145.5,320.11" style="stroke:#181818;stroke-width:1.0;"/></g><!--reverse link Heart to HumanHeart--><g id="link_Heart_HumanHeart"><path codeLine="54" d="M382.72,329.82 C374.93,343.93 366.67,358.91 359.6,371.71 " fill="none" id="Heart-backto-HumanHeart" style="stroke:#181818;stroke-width:1.0;stroke-dasharray:7.0,7.0;"/><polygon fill="none" points="376.76,326.14,392.55,312.02,389.01,332.91,376.76,326.14" style="stroke:#181818;stroke-width:1.0;"/></g><!--reverse link Lung to HumanLung--><g id="link_Lung_HumanLung"><path codeLine="55" d="M624.5,332.2 C624.5,345.61 624.5,359.63 624.5,371.71 " fill="none" id="Lung-backto-HumanLung" style="stroke:#181818;stroke-width:1.0;stroke-dasharray:7.0,7.0;"/><polygon fill="none" points="617.5,332.02,624.5,312.02,631.5,332.02,617.5,332.02" style="stroke:#181818;stroke-width:1.0;"/></g><!--reverse link Brain to DogBrain--><g id="link_Brain_DogBrain"><path codeLine="57" d="M201.5,332.2 C201.5,345.61 201.5,359.63 201.5,371.71 " fill="none" id="Brain-backto-DogBrain" style="stroke:#181818;stroke-width:1.0;stroke-dasharray:7.0,7.0;"/><polygon fill="none" points="194.5,332.02,201.5,312.02,208.5,332.02,194.5,332.02" style="stroke:#181818;stroke-width:1.0;"/></g><!--reverse link Heart to DogHeart--><g id="link_Heart_DogHeart"><path codeLine="58" d="M438.68,329.82 C446.58,343.93 454.97,358.91 462.14,371.71 " fill="none" id="Heart-backto-DogHeart" style="stroke:#181818;stroke-width:1.0;stroke-dasharray:7.0,7.0;"/><polygon fill="none" points="432.37,332.89,428.71,312.02,444.59,326.05,432.37,332.89" style="stroke:#181818;stroke-width:1.0;"/></g><!--reverse link Lung to DogLung--><g id="link_Lung_DogLung"><path codeLine="59" d="M680.16,324.68 C699.42,340.31 720.61,357.51 738.37,371.93 " fill="none" id="Lung-backto-DogLung" style="stroke:#181818;stroke-width:1.0;stroke-dasharray:7.0,7.0;"/><polygon fill="none" points="675.68,330.06,664.56,312.02,684.5,319.19,675.68,330.06" style="stroke:#181818;stroke-width:1.0;"/></g><!--SRC=[ZP5D3e8m48NtFKMN4843DCQ5kc3X9IfMQCIIbDQDUdVxHpj48x1yV6_UcoaNYiahRHZUIye5VY9ilWrM7HUtB2VuCV0BUYF48rWpAbK4puogtzn9YpPXqd0TWsJJqt741_j3InR8qf2c1_5rWjJPHEA3WzIRuSH5e90m3ShWW6BcBO0j3xQMAKVQPYdJwSvZzHJiT6ktiakFYzJwJiN24G7v_ue0N7V6uz2koZRSccI3BUN6XolBNRZSJF97cqd-kNpFxQkgmCsGRvLKRtSbalWrO5eRsgSLWJciWpu0]--></g></svg>